<?xml version="1.0" encoding="utf-8"?>
<!-- Generator: Adobe Illustrator 21.1.0, SVG Export Plug-In . SVG Version: 6.00 Build 0)  -->
<svg version="1.1" id="Calque_1" xmlns="http://www.w3.org/2000/svg" xmlns:xlink="http://www.w3.org/1999/xlink" x="0px" y="0px"
	 viewBox="0 0 432 432" style="enable-background:new 0 0 432 432;" xml:space="preserve">
<style type="text/css">
	.st0{fill:#1A1A1A;}
	.st1{fill:#F486A1;}
	.st2{fill:#CCCCCC;}
	.st3{fill:#3F3531;}
	.st4{fill:#BC4662;}
	.st5{fill:#6BAE3D;}
	.st6{fill:#F8982A;}
	.st7{fill:#BA61BB;}
	.st8{fill:#16BACB;}
	.st9{fill:#C4DA6D;}
	.st10{fill:#5C62B8;}
	.st11{fill:#8F99F2;}
	.st12{fill:#ED5F7D;}
	.st13{fill:#5A9100;}
	.st14{fill:#E2B8E0;}
	.st15{fill:#F8BE74;}
	.st16{fill:#43934A;}
	.st17{fill:#F55D00;}
	.st18{fill:#456F01;}
	.st19{fill:#333333;}
	.st20{fill:#9BE0ED;}
	.st21{fill:#A67C52;}
	.st22{fill:#42210B;}
	.st23{fill:#999999;}
	.st24{fill:#8F1A53;}
	.st25{fill:#E38BA4;}
	.st26{fill:#4D4D4D;}
	.st27{fill:#DF5376;}
	.st28{fill:#E5445E;}
	.st29{fill:#EDBAC9;}
	.st30{fill:#E7D3D5;}
	.st31{fill:#C1272D;}
	.st32{fill:#BC2A34;}
	.st33{fill:#AB827E;}
	.st34{fill:#75614D;}
	.st35{fill:#4F4A41;}
	.st36{fill:#7E7163;}
</style>
<g>
	<path class="st19" d="M89,173.5c0.3,0.2,0.5,0.5,1,0.7c0-0.7,0.1-1.3,0.1-2c0.1-2.3,0.4-4.5,0.9-6.8c1-4.4,2.8-8.4,5.3-12.2
		c0.4-0.6,0.5-0.6-0.2-1c-1.5-1.1-2.9-2.2-4.3-3.3c-4.2-3.5-8.2-7.2-11.5-11.6c-1.7-2.3-3.4-4.6-5-6.9c-5.6-8.4-11.8-16.3-17.7-24.4
		c-0.6-0.8-1.2-1.5-1.9-2.1c-0.3-0.2-0.6-0.5-1-0.3c-0.4,0.2-0.5,0.6-0.5,1c0,0.9,0,1.7,0.1,2.6c0.5,3.6,1.3,7.2,2.3,10.7
		c4,14.3,10.6,27.4,18.7,39.7C79,163.5,83.6,168.8,89,173.5z"/>
	<path class="st19" d="M377.9,104.3c-0.2-0.9-0.7-1.1-1.5-0.6c-0.6,0.4-1.1,1-1.6,1.6c-0.8,1-1.5,2.1-2.3,3.1
		c-4.4,5.9-8.9,11.7-13,17.7c-2.3,3.4-4.7,6.8-7.2,10.1c-2.3,3.1-4.9,6-7.7,8.6c-2.4,2.3-5,4.4-7.6,6.4c-0.9,0.7-0.7,0.6-0.3,1.3
		c0.9,1.8,1.8,3.6,2.4,5.5c1.4,4.2,2.1,8.5,2.4,12.9c0.1,1.1,0.2,2.1,0.3,3.3c0.5-0.2,0.7-0.4,1-0.7c4-3.5,7.6-7.4,10.9-11.6
		c3.9-5.2,7.3-10.8,10.4-16.5c5-9.1,9-18.6,11.8-28.7c1-3.5,1.8-7.1,2.1-10.8C378,105.4,378.1,104.9,377.9,104.3z"/>
	<path class="st19" d="M141.7,260c-1.7-4.2-3.7-8.2-5.7-12.2c-1.9-3.8-3.7-7.6-5-11.7c-1.1-3.5-1.9-6.9-2.2-10.6
		c-0.3-3.1-0.7-6.2-1.6-9.2c-1.2-4-3.3-7.2-6.6-9.8c-1.4-1.1-3-1.9-4.7-2.3c-0.3-0.1-0.6-0.1-1.1-0.3c0.7-0.1,1.1-0.1,1.6,0
		c1.5,0.3,2.9,0.8,4.2,1.5c3,1.5,5.5,3.6,7.9,5.9c0.2,0.2,0.4,0.4,0.6,0.6c0.2,0.2,0.5,0.2,0.7,0c0.2-0.2,0.1-0.4,0-0.6
		c-0.1-0.1-0.1-0.2-0.2-0.2c-1.9-2.1-3.9-4.2-6.4-5.7c-1.9-1.1-3.9-2.1-6.2-2.6c0.3-0.1,0.6,0,0.8,0c1.7,0.3,3.4,0.9,4.9,1.7
		c1.9,0.9,3.7,2.1,5.5,3.2c0.2,0.1,0.4,0.3,0.6,0.3c0.2,0.1,0.4,0,0.6-0.2c0.1-0.2,0.1-0.4-0.1-0.6c-0.1-0.1-0.2-0.2-0.4-0.3
		c-2.1-1.4-4.1-2.8-6.3-3.8c-2.1-1-4.4-1.7-6.8-1.5c-0.1,0-0.3,0.1-0.4-0.2c0.2-0.3,0.5-0.5,0.8-0.7c0.7-0.4,1.4-0.8,2.1-1.2
		c0.2-0.1,0.4-0.3,0.6-0.4c0.1-0.1,0.2-0.2,0.1-0.3c-0.1-0.2-0.2-0.2-0.4-0.2c-0.3,0.1-0.5,0.2-0.8,0.3c-1.4,0.7-2.8,1.3-4.1,2.7
		c0.1-0.9,0.5-1.4,0.8-1.9c0.7-1,1.6-1.9,2.5-2.7c0.3-0.2,0.5-0.5,0.8-0.7c0.1-0.1,0.3-0.3,0.1-0.5c-0.2-0.2-0.3-0.1-0.5,0
		c-0.1,0-0.2,0.1-0.2,0.1c-1.5,1.3-3,2.4-4,4.1c-0.1,0.1-0.1,0.3-0.3,0.3c-0.9-1.6-4.3-12.8-4.2-13.8c0.3,0.8,0.5,1.6,1.4,1.7
		c0.8,0,1.1-0.6,1.3-1.4c0.3,0.9,0.4,1.5,0.7,2.2c0.6,1.2,2,1.4,2.9,0.3c0.2-0.3,0.4-0.6,0.5-1c0.2-0.8,0.4-1.6,0.5-2.4
		c0.2-2.5,0.4-5,0.5-7.5c0.3-5.7,1-11.4,1.5-17.1c0.1-1,0.2-2.1,0.1-3.1c-0.1-1.1-0.9-1.7-2-1.3c-0.1,0-0.2,0.1-0.3,0.2
		c-0.2,0.1-0.4,0.2-0.6,0c-0.6-0.6-1.3-0.6-2-0.3c-0.3,0.1-0.4,0.1-0.6-0.1c-0.7-0.7-1.5-0.8-2.3-0.3c-0.3,0.2-0.5,0.4-0.8,0.5
		c-0.6-1.6-1.5-1.9-3.2-0.8c-0.3-1.4-1.9-1.8-3.6-0.5c0.2-1.1,0-1.5-0.9-1.7c-0.8-0.2-1.4,0-2,0.5c-0.5,0.4-0.9,0.8-1.2,1.3
		c-1.5,1.9-2.6,4.1-3.5,6.4c-1.1,2.7-1.6,5.5-1.7,8.3c-0.1,2.9,0.2,5.7,0.6,8.5c0.1,0.5,0.2,1,0.3,1.5c0.3,0.7,0.8,1.2,1.6,1.3
		c0.7,0,1.1-0.4,1.4-1.1c0-0.1,0.1-0.1,0.1-0.1c0.2,0.3,0.2,0.7,0.3,1.1c0.1,0.6,0.3,1.2,1,1.3c0.3,0.1,0.5,0.3,0.6,0.5
		c0.3,0.5,0.8,0.7,1.4,0.5c0.4-0.1,0.6-0.4,0.8-0.6c0.2,0.3,0.2,0.6,0.4,0.8c0.5,0.8,0.4,1.6,0.2,2.4c-0.4,2.2-0.7,4.4-0.9,6.7
		c-0.5,4.9-0.7,9.9-0.9,14.9c0,0.3,0.1,0.6-0.2,0.9c-0.4-0.3-0.5-0.7-0.7-1c-0.1-0.2-0.2-0.3-0.4-0.3c-0.2,0-0.3,0.2-0.3,0.4
		c0,0.3,0.1,0.6,0.3,0.9c0.1,0.3,0.3,0.5,0.5,0.9c-0.4-0.1-0.4-0.4-0.6-0.6c-0.2-0.2-0.5-0.2-0.5,0c-0.1,0.6-0.9,0.7-0.8,1.5
		c-0.7-0.6-1.2-1.1-1.8-1.5c-0.2-0.2-0.5-0.3-0.7,0c-0.2,0.2-0.2,0.5,0,0.7c0.2,0.2,0.4,0.4,0.5,0.5c0.7,0.6,1.3,1.3,2.1,2
		c-1-0.1-1.9-0.2-2.7,0c-3.2,0.5-5.4,2.4-7.2,5c-0.1,0.1-0.1,0.2-0.2,0.3c0,0.2,0,0.3,0.1,0.4c0.1,0.1,0.3,0,0.4-0.1
		c0.2-0.2,0.4-0.4,0.5-0.5c0.5-0.6,1-1.2,1.5-1.7c1.7-1.6,3.6-2.7,6.1-2.4c0.9,0.1,1.8,0.3,2.7,0.8c-0.2,0.2-0.4,0.1-0.6,0.1
		c-3.3,0-6.1,1.3-8.6,3.3c-0.2,0.2-0.4,0.3-0.5,0.5c-0.1,0.2-0.2,0.4,0,0.5c0.2,0.2,0.4,0.1,0.5,0c0.4-0.3,0.8-0.6,1.2-0.9
		c0.5-0.4,1-0.7,1.6-1c0,0.3-0.2,0.4-0.3,0.5c-0.6,0.6-1.2,1.2-1.7,1.9c-0.2,0.2-0.3,0.4-0.4,0.6c-0.1,0.2-0.1,0.4,0.1,0.5
		c0.2,0.1,0.3,0,0.4-0.1c0.2-0.2,0.4-0.3,0.5-0.5c0.4-0.4,0.8-0.9,1.2-1.3c1.7-1.7,3.8-2.4,6.2-2.3c-1.6,0.8-3,1.9-4.5,2.8
		c-0.2,0.2-0.5,0.3-0.6,0.6c-0.2,0.6-0.7,0.9-1.1,1.3c-1.3,1.4-2.4,2.8-3.5,4.4c-2.6,4-3.7,8.5-4.2,13.2c-0.3,2.6-0.2,5.2-0.2,7.9
		c0,5.5-0.7,10.8-3.1,15.8c-1.1,2.2-1.7,4.6-2,7.1c-0.7,5-0.6,10,0.1,14.9c0.5,3.4,1.2,6.9,1.7,10.3c0.4,2.4,0.7,4.9,0.3,7.4
		c-0.1,0.6-0.2,1.2-0.3,1.9c-0.1,0.7,0.1,1.1,0.5,1.3c0.5,0.2,1,0.1,1.4-0.3c0.2-0.2,0.3-0.3,0.5-0.5c2.6-3,5.5-5.7,8.1-8.6
		c4.7-5.3,8-11.4,9.3-18.4c0.7-3.5,1-7,1.3-10.4c0-0.2-0.1-0.5,0.2-0.8c0.3,0.4,0.3,0.8,0.4,1.1c3,10.8,8.5,20.2,16.5,28.2
		c1.2,1.2,2.4,2.4,3.6,3.6c2.1,2.1,4,4.4,5.4,7.1c0.4,0.7,0.8,1.5,1.2,2.2c0.6,1.1,1.6,1.2,2.3,0.2c0.4-0.5,0.7-1.1,1-1.7
		c2.2-4.1,4.4-8.2,6.5-12.3c1.4-2.7,2.6-5.6,3.6-8.5c1.6-4.9,2.1-9.9,1.4-15C144.1,266.7,143,263.3,141.7,260z M105.4,184.9
		c0.4,1.4,1.2,2.7,1.5,4.1c0.7,2.7,1.6,5.5,2.4,8.2c0.1,0.3,0.2,0.6,0.2,1c-0.5-0.2-0.9-0.5-1.3-0.7c-0.6-0.3-1.2-0.7-1.8-1
		c-0.2-0.1-0.4-0.2-0.6-0.2c-0.2,0-0.4,0.1-0.4,0.3c-0.1,0.2,0.1,0.3,0.2,0.4c0.2,0.1,0.4,0.2,0.7,0.4c0.9,0.5,1.8,1,2.6,1.8
		c-0.5-0.3-1.1-0.5-1.6-0.8c-0.3-0.1-0.6-0.3-0.9-0.4c-0.3-0.1-0.7-0.3-0.9,0.1c-0.2,0.5,0.3,0.5,0.6,0.7c1,0.5,2,1,2.9,1.7
		c0.3,0.3,0.7,0.5,1,0.9c-0.8,0-1.6,0-2.3,0c-0.8,0-1.6,0.2-2.4,0.4c-0.7,0.2-1.5,0.5-2.2,0.8C102.6,201.7,104.8,186.4,105.4,184.9z
		 M102.1,207.3c0.1-1,0.2-2.1,0.3-3.1c0-0.3,0.1-0.5,0.4-0.7c2.5-1,5-1.5,7.7-0.7c0.1,0,0.2,0.1,0.3,0.2c0,0.2-0.1,0.2-0.2,0.2
		c-1.3,0-2.4,0.4-3.5,1c-1.1,0.6-2.1,1.4-3.2,2c-0.1,0-0.1,0.1-0.2,0.1c-0.2,0.2-0.5,0.4-0.3,0.7c0.2,0.3,0.5,0.1,0.7,0
		c0.2-0.1,0.5-0.3,0.7-0.4c0.4-0.2,0.7-0.5,1.2-0.2c0.2,0.1,0.5-0.1,0.8-0.1c0.8-0.2,1.6-0.5,2.5-0.6c-0.1,0.4-0.3,0.4-0.5,0.6
		c-1.2,0.9-2.3,2-3,3.4c-0.3,0.5-0.7,0.9-1.3,1.2c-0.8,0.4-1.6,0.9-2.5,1c0.9-0.6,1.8-1.3,2.6-1.9c0.2-0.1,0.4-0.3,0.5-0.5
		c0.1-0.1,0.1-0.2,0-0.4c-0.1-0.1-0.2-0.1-0.3-0.1c-0.2,0.1-0.5,0.3-0.7,0.5c-0.7,0.5-1.4,1-2.3,1.4
		C101.8,209.5,102,208.4,102.1,207.3z M110.6,204.3c-0.9,0.3-1.9,0.5-2.8,0.8C108.6,204.4,109.6,204.2,110.6,204.3z M104.1,213.2
		c0,0.1-0.1,0.2-0.3,0.1c-0.2-0.1-0.4-0.1-0.5-0.4c0.2-0.2,0.4-0.1,0.6-0.1C104.1,212.9,104.2,213,104.1,213.2z M101.8,213.9
		c0.7,0.1,1.3,0.4,1.8,0.8c0,0,0,0.1,0.1,0.2c0,0.2-0.1,0.3-0.3,0.3c-0.6-0.2-1.1-0.4-1.7-0.7c-0.1-0.1-0.2-0.2-0.1-0.3
		C101.6,214,101.7,213.9,101.8,213.9z M100.6,256.5c-1.5,4.6-2.2,9.3-2.3,14.2c-0.1,2.8-0.3,5.7-0.8,8.5c-0.7,3.8-2.3,7.4-4.4,10.6
		c-1.5,2.2-3.1,4.4-5,6.3c-1.3,1.3-2.5,2.8-3.7,4.2c-0.2,0.2-0.3,0.4-0.6,0.7c-0.1-2-0.2-3.7-0.3-5.4c-0.2-2.7-0.7-5.3-0.9-8
		c-0.4-4.8-0.9-9.7-0.3-14.6c0.5-3.5,1.2-7,2.4-10.3c1-2.7,1.9-5.4,2.3-8.2c0.4-2.5,0.5-5.1,0.7-7.7c0.1-2.9,0.2-5.8,0.5-8.6
		c0.4-3.3,1.1-6.6,2.4-9.7c0.3-0.9,0.8-1.7,1.3-2.4c1.8-2.7,4.1-5,6.5-7.2c0.1-0.1,0.3-0.2,0.5-0.3c0,0,0.1,0,0.2,0
		c0.2,0.1,0.1,0.3,0.1,0.5c-0.2,2.4-0.2,4.8-0.1,7.2c0,4.2-0.6,8.4-1.6,12.5c-1.2,5.3-2.7,10.5-4,15.7c-0.6,2.6-1,5.2-1.3,7.8
		c-0.4,3.4-1.1,6.8-1.6,10.2c-0.9,5.6-2,11.1-3.2,16.6c-0.3,1.2-0.6,2.4-1.1,3.6c-0.2,0.5-0.3,1.1-0.5,1.6c-0.1,0.2-0.1,0.5,0.2,0.7
		c0.3,0.2,0.5,0.1,0.8,0c0.5-0.2,0.7-0.6,0.9-1c1-2.1,1.8-4.3,2.1-6.7c0.4-2.8,0.8-5.7,1.2-8.5c0.5-3.1,1.3-6,1.9-9.1
		c0.7-3.5,1.8-6.8,2.8-10.2c1.8-6.3,3.1-12.7,3.9-19.2c0.4-3.1,0.9-6.2,1.7-9.2c0.8-3,1-6.1,1-9.1c0-0.2,0-0.4,0-0.7
		c0.4,0.2,0.4,0.5,0.6,0.8c1.1,2.7,1.8,5.6,2.3,8.5c0.3,1.5,0.4,3,0.6,4.5c0.3,3.5-0.2,6.9-1.2,10.3
		C102.9,248.9,101.8,252.7,100.6,256.5z M141.1,277.4c-0.1,2.9-0.8,5.7-1.8,8.4c-2.2,5.9-4.8,11.6-7.5,17.3
		c-0.1,0.1-0.1,0.3-0.3,0.4c-0.3-0.1-0.3-0.4-0.4-0.6c-1.1-2.6-2.7-4.9-4.7-6.9c-1.4-1.4-2.8-2.8-4.2-4.2
		c-5.4-5.2-9.7-11.2-13.3-17.8c-1.8-3.3-2.9-6.8-3.7-10.4c-0.4-2-1.1-4-1.6-6c-0.1-0.5-0.1-1-0.1-1.6c0.5-3,1.5-5.9,2.4-8.9
		c1.2-3.9,2.1-7.9,2.5-12c0.4-5-0.1-9.8-2-14.4c-0.1-0.2-0.2-0.4-0.2-0.6c0,0,0-0.1,0.1-0.1c0.3,0.2,0.4,0.5,0.6,0.8
		c1.5,2.4,2.4,4.9,3.1,7.6c0.2,0.7,0.4,1.5,0.6,2.2c0.1,0.2,0.1,0.4,0.2,0.5c0.1,0.2,0.4,0.2,0.6,0.1c0.2-0.1,0.3-0.2,0.3-0.4
		c-0.1-0.5-0.1-1.1-0.2-1.6c-0.5-2.3-1.2-4.6-2.1-6.8c-0.8-1.8-1.8-3.5-3.1-5c-0.1-0.1-0.1-0.1-0.2-0.2c-0.2-0.2-0.3-0.5-0.1-0.7
		c0.3-0.2,0.4,0.1,0.6,0.3c1.2,1.3,2.3,2.8,3.3,4.3c0.7,1.1,1.4,2.2,2.1,3.3c0.1,0.2,0.2,0.3,0.3,0.5c0.2,0.2,0.5,0.3,0.8,0.1
		c0.3-0.2,0.3-0.4,0.1-0.7c-0.4-0.7-0.7-1.5-1.1-2.2c-1.4-2.5-3.1-4.9-5.2-6.9c-0.2-0.2-0.4-0.3-0.3-0.6c0.1-0.4,0.2-0.8,0.5-1.1
		c0.2-0.2,0.4,0,0.6,0.1c1.8,0.6,3.5,1.4,5.3,2.1c0.2,0.1,0.4,0.2,0.6,0.2c0.2,0,0.5,0,0.5-0.3c0.1-0.2,0-0.4-0.2-0.5
		c-0.2-0.2-0.5-0.3-0.7-0.4c-1.7-0.8-3.4-1.5-5.1-2.3c-0.6-0.3-0.6-0.3-0.3-0.9c0.7-1.4,1.6-2.6,2.7-3.6c0.4-0.4,0.9-0.6,1.4-0.7
		c0.6-0.2,0.6-0.2,0.8,0.4c0.4,1.5,0.8,3.1,1.2,4.6c1.1,4.7,2.1,9.4,2.8,14.1c0.5,3.7,0.9,7.3,1,11c0.2,4.6,0.4,9.3,0.6,13.9
		c0.2,5.3,0.7,10.6,1.7,15.8c0.7,3.7,2,7.3,3.5,10.8c0.5,1.1,1,2.1,1.5,3.2c1.2,2.6,2.2,5.3,2.8,8c0.1,0.5,0.3,1,0.5,1.4
		c0.3,0.5,0.7,0.6,1.1,0.5c0.4-0.1,0.8-0.5,0.8-1c0-0.3-0.1-0.7-0.2-1c-1.2-4.7-2.8-9.3-5-13.7c-1.3-2.5-2.3-5.1-2.7-7.9
		c-0.4-2.5-0.7-5-0.8-7.5c-0.3-6.3-0.6-12.6-1.2-18.8c-0.2-2.5-0.6-5-0.4-7.6c0.1-1.9,0.2-3.7,0.3-5.6c0.3-4.9-0.5-9.6-2.2-14.2
		c-0.9-2.4-1.7-4.7-2.8-7c-0.1-0.2-0.2-0.3-0.2-0.7c0.8,0.1,1.6,0.4,2.2,0.8c1.9,1.1,3.5,2.6,4.7,4.5c2.3,3.9,3.8,8.1,4.3,12.6
		c0.2,2.1,0.3,4.2,0.5,6.2c0.5,4.2,1.7,8.1,3.7,11.8c0.4,0.7,0.7,1.4,1.2,2.1c3.7,5.9,6.1,12.4,8.2,19
		C141,267.8,141.3,272.6,141.1,277.4z"/>
	<path class="st19" d="M349.9,255.4c-0.8-3.3-0.9-6.6-0.9-9.9c0-3.1,0-6.2-0.4-9.3c-0.5-3.7-1.5-7.2-3.4-10.5
		c-1.2-2-2.6-3.9-4.3-5.5c-0.5-0.5-0.6-1.1-1.2-1.5c-1.5-1-2.9-2.1-4.5-2.8c-0.1-0.1-0.3-0.1-0.3-0.3c2.5,0,4.7,0.9,6.4,2.7
		c0.3,0.4,0.7,0.8,1,1.1c0.1,0.2,0.3,0.3,0.5,0.5c0.1,0.1,0.3,0.2,0.4,0c0.1-0.1,0.1-0.3,0.1-0.4c0-0.2-0.2-0.4-0.3-0.6
		c-0.4-0.5-0.8-0.9-1.2-1.4c-0.3-0.3-0.7-0.7-1-1c0.7,0.1,1.2,0.5,1.7,0.9c0.4,0.3,0.8,0.6,1.2,0.8c0.2,0.1,0.3,0.2,0.5,0.1
		c0.2-0.2,0.1-0.4,0-0.6c-0.1-0.1-0.2-0.2-0.3-0.3c-1.9-1.6-4.1-2.8-6.6-3.3c-0.9-0.2-1.8-0.2-2.7-0.3c1.9-0.9,3.8-1.2,5.8-0.3
		c1.3,0.6,2.4,1.4,3.4,2.4c0.5,0.5,0.9,1,1.4,1.6c0.2,0.2,0.4,0.4,0.6,0.2c0.2-0.2,0.1-0.5,0-0.7c-0.3-0.5-0.7-1-1.1-1.4
		c-1.6-1.9-3.6-3.2-6.1-3.6c-0.9-0.1-1.7-0.1-2.6,0c0.1-0.3,0.4-0.5,0.5-0.6c0.6-0.6,1.3-1.2,1.9-1.8c0.2-0.2,0.3-0.5,0-0.8
		c-0.2-0.2-0.5-0.1-0.7,0.1c-0.1,0.1-0.3,0.3-0.4,0.4c-0.4,0.3-0.8,0.8-1.4,1.1c0.2-0.6-0.4-0.7-0.5-1c-0.4-0.7-0.4-0.7-0.9,0
		c-0.1,0.1-0.1,0.2-0.3,0.2c0.1-0.2,0.2-0.4,0.3-0.6c0.2-0.3,0.3-0.5,0.4-0.9c0-0.3,0-0.5-0.3-0.6c-0.3-0.1-0.4,0.2-0.5,0.4
		c-0.2,0.3-0.3,0.7-0.8,0.9c0-0.4-0.1-0.7-0.1-1c-0.2-4.2-0.4-8.4-0.7-12.6c-0.2-3.3-0.7-6.5-1.2-9.7c0-0.3-0.1-0.5,0-0.8
		c0.2-0.5,0.4-1,0.7-1.6c1,0.9,1.5,0.9,2.4-0.1c0.1-0.2,0.3-0.3,0.5-0.3c0.7-0.2,1-0.7,1.1-1.4c0-0.4,0-0.7,0.3-1.1
		c0.1,0.2,0.2,0.3,0.2,0.5c0.6,0.9,1.5,1,2.3,0.3c0.4-0.4,0.6-0.9,0.7-1.4c0.1-0.7,0.2-1.4,0.3-2.2c0.4-2.9,0.6-5.8,0.3-8.8
		c-0.4-4.4-1.9-8.3-4.3-11.9c-0.5-0.8-1.1-1.6-1.8-2.3c-0.5-0.5-1-0.7-1.7-0.8c-1.1-0.1-1.7,0.6-1.4,1.7c0,0-0.1,0.1-0.1,0.1
		c-0.6-0.5-1.2-0.8-2-0.8c-0.8,0-1.4,0.5-1.6,1.3c-0.6-0.5-1.2-0.8-1.9-0.7c-0.8,0.1-1.1,0.7-1.3,1.4c-0.3-0.2-0.6-0.5-0.9-0.6
		c-0.8-0.4-1.6-0.4-2.1,0.2c-0.3,0.3-0.5,0.3-0.9,0.2c-0.6-0.3-1.2-0.2-1.7,0.2c-0.4,0.3-0.6,0.3-1,0.1c-1.2-0.5-2.1,0.1-2.1,1.4
		c0,0.5,0,1.1,0,1.6c0.1,1.8,0.3,3.7,0.5,5.5c0.3,2.9,0.6,5.8,0.8,8.7c0.3,3.5,0.4,7.1,0.6,10.6c0.1,1.1,0.2,2.3,0.5,3.4
		c0.1,0.5,0.3,1,0.7,1.3c0.9,0.9,2.2,0.7,2.8-0.4c0.3-0.5,0.4-1,0.5-1.5c0.1-0.2,0-0.5,0.3-0.5c0,0.7,0.3,1.2,1,1.3
		c1.1,0.1,1.2-0.9,1.7-1.6c-1.2,4.7-2.7,9.2-4.3,14c-1-1.9-2.5-3.1-4-4.3c-0.2-0.1-0.3-0.3-0.5-0.4c-0.2-0.1-0.5-0.3-0.7,0
		c-0.2,0.2,0.1,0.4,0.2,0.6c0.5,0.5,1.1,1,1.6,1.5c0.8,0.7,1.4,1.5,1.9,2.4c0.2,0.3,0.4,0.7,0.3,1.3c-1.2-1.3-2.6-1.9-4-2.6
		c-0.3-0.1-0.5-0.3-0.8-0.3c-0.1,0-0.2,0-0.3,0.2c-0.1,0.1,0,0.3,0.1,0.3c0.2,0.2,0.4,0.3,0.6,0.4c0.9,0.5,1.8,0.9,2.6,1.5
		c0.2,0.1,0.4,0.2,0.3,0.5c-0.9,0-1.8,0-2.7,0.1c-2,0.3-3.8,1-5.5,2c-1.7,1-3.4,2-5,3.1c-0.2,0.1-0.4,0.3-0.5,0.4
		c-0.2,0.2-0.3,0.4-0.1,0.6c0.1,0.3,0.4,0.3,0.6,0.2c0.2-0.1,0.4-0.2,0.6-0.3c2.2-1.3,4.3-2.7,6.6-3.7c1.4-0.6,2.9-1.1,4.5-1.2
		c-1.9,0.5-3.7,1.3-5.5,2.2c-2.8,1.5-4.9,3.8-7,6.1c-0.1,0.1-0.1,0.1-0.2,0.2c-0.1,0.2-0.1,0.4,0.1,0.6c0.2,0.2,0.4,0.2,0.6,0
		c0.2-0.2,0.4-0.4,0.6-0.6c2.4-2.3,4.9-4.4,7.9-5.9c1.4-0.7,2.8-1.3,4.3-1.5c0.4-0.1,0.9-0.1,1.3,0c-0.3,0.1-0.6,0.2-0.9,0.3
		c-1.6,0.4-3.1,1.1-4.4,2.1c-2.6,2-4.7,4.5-6,7.6c-1,2.4-1.6,4.9-2,7.5c-0.3,2.3-0.4,4.5-0.8,6.8c-0.9,5.5-2.6,10.7-5,15.7
		c-1.2,2.6-2.5,5.1-3.8,7.7c-2,4.1-3.9,8.3-5.3,12.7c-1.8,5.7-2.3,11.5-1,17.3c0.9,3.9,2.3,7.7,4.2,11.3c2.3,4.5,4.8,9,7.1,13.5
		c0.2,0.4,0.5,0.8,0.7,1.2c0.1,0.2,0.3,0.5,0.6,0.6c0.6,0.4,1.3,0.3,1.7-0.3c0.2-0.3,0.3-0.6,0.5-0.9c1.4-2.9,3.3-5.5,5.6-7.9
		c1.6-1.7,3.3-3.4,5-5.1c1.1-1.1,2.2-2.2,3.1-3.4c5.9-7.2,10.3-15.2,12.7-24.3c0.1-0.3,0-0.7,0.5-0.9c0,0.2,0.1,0.4,0.1,0.5
		c0.2,2.9,0.5,5.7,0.9,8.6c1.1,7.7,4.4,14.5,9.5,20.3c2.7,3.1,5.7,5.9,8.4,8.9c0.2,0.2,0.4,0.5,0.7,0.6c0.7,0.5,1.6,0,1.6-0.9
		c0-0.4-0.1-0.8-0.2-1.2c-0.3-1.8-0.4-3.6-0.2-5.5c0.2-2.6,0.6-5.1,1.1-7.6c0.9-4.7,1.5-9.5,1.5-14.3c0-5.1-0.9-9.9-3-14.6
		C350.8,258.7,350.3,257.1,349.9,255.4z M332,214.1c0,0.2,0,0.3-0.2,0.4c-0.5,0.1-1,0.3-1.5,0.6c-0.1,0.1-0.2,0.1-0.3-0.1
		c-0.1-0.1-0.1-0.3,0-0.3c0.5-0.4,1.1-0.7,1.8-0.8C331.9,213.9,332,214,332,214.1z M329.5,213.3c0,0-0.1-0.2,0-0.2
		c0.2-0.2,0.5-0.1,0.9-0.1C330,213.2,329.8,213.4,329.5,213.3z M328.2,198c-0.1-0.2-0.3-0.3-0.5-0.3c-0.2,0-0.4,0.1-0.6,0.2
		c-0.8,0.4-1.6,0.8-2.5,1.2c0.1-0.4,0.4-0.4,0.6-0.6c0.9-0.6,1.7-1.1,2.7-1.6c0.2-0.1,0.4-0.2,0.3-0.5c-0.1-0.3-0.4-0.3-0.6-0.2
		c-0.5,0.3-1,0.5-1.5,0.8c-0.6,0.4-1.2,0.7-2,1c0.7-2.2,1.3-4.4,2-6.6c0.7-2.2,1.1-4.5,2.3-6.6c1,5.9,1.9,11.7,2.7,17.7
		c-2.3-1.1-4.6-1.7-7-1.3c-0.1-0.4,0.1-0.4,0.3-0.6c0.7-0.7,1.5-1.1,2.4-1.6c0.5-0.2,1-0.5,1.4-0.7
		C328.2,198.4,328.3,198.2,328.2,198z M325,202.4c1.9-0.1,3.8,0.3,5.6,1c0.3,0.1,0.6,0.2,0.6,0.6c0.2,2.2,0.5,4.4,0.6,6.6
		c-0.3,0.2-0.5,0-0.6-0.1c-0.6-0.4-1.2-0.8-1.7-1.2c-0.2-0.1-0.4-0.3-0.6-0.4c-0.1-0.1-0.2-0.1-0.3,0c-0.1,0.1-0.1,0.3,0,0.4
		c0.2,0.2,0.4,0.4,0.6,0.5c0.9,0.6,1.7,1.2,2.6,1.9c-1.5-0.6-3.1-0.9-3.9-2.5c-0.7-1.2-1.7-2.2-2.8-3.1c-0.2-0.2-0.4-0.3-0.8-0.6
		c0.8,0,1.3,0.3,1.9,0.4c0.7,0.1,1.3,0.6,2,0.2c0.2-0.1,0.3,0.1,0.5,0.2c0.4,0.2,0.8,0.5,1.1,0.7c0.2,0.1,0.4,0.1,0.5,0
		c0.2-0.2,0-0.4-0.1-0.6c-0.1-0.1-0.2-0.2-0.3-0.2c-1.1-0.7-2.1-1.5-3.3-2.1c-1.2-0.6-2.4-1-3.7-1.1
		C323.4,202.6,324.2,202.5,325,202.4z M323,204.2c1-0.1,2,0.2,2.8,0.8C324.8,204.9,323.9,204.5,323,204.2z M330.1,257.3
		c-1,3.6-1.8,7.3-2.9,10.9c-0.7,2-1.5,4-2.5,5.9c-3.6,6.5-7.9,12.5-13.3,17.7c-1.3,1.2-2.5,2.5-3.8,3.7c-2.2,2.2-4.1,4.7-5.3,7.6
		c0,0.1-0.1,0.2-0.2,0.3c0,0,0,0-0.1,0.1c-0.2,0-0.2-0.1-0.2-0.2c-2.8-5.8-5.4-11.7-7.7-17.8c-1.6-4.3-1.9-8.7-1.7-13.3
		c0.3-6.2,2.3-11.9,4.6-17.5c1.5-3.8,3.3-7.4,5.4-10.9c3.1-5.1,4.7-10.8,4.9-16.8c0.1-4.6,1.4-8.9,3.3-13.1c1.1-2.4,2.6-4.5,4.8-6.1
		c0.9-0.6,1.8-1.2,2.8-1.5c0.2-0.1,0.4-0.1,0.5-0.1c0.1,0.4-0.2,0.7-0.3,1c-1.8,4.1-3.4,8.2-4.3,12.6c-0.5,2.4-0.6,4.8-0.5,7.2
		c0.1,1.7,0.1,3.5,0.2,5.2c0.2,2.7,0,5.3-0.2,8c-0.5,5.2-0.9,10.4-1.1,15.6c-0.1,3.9-0.4,7.7-1,11.5c-0.3,2.4-0.9,4.6-2,6.8
		c-0.8,1.5-1.5,3.1-2.2,4.6c-1.6,3.4-2.6,7-3.6,10.6c-0.1,0.3-0.1,0.6-0.1,0.8c0,0.5,0.4,0.9,0.8,1c0.5,0.1,0.8-0.1,1.1-0.6
		c0.2-0.4,0.4-0.8,0.5-1.2c0.7-3.1,1.8-6,3.1-8.8c1.7-3.6,3.2-7.2,4.2-11.1c0.8-3.3,1.3-6.6,1.6-10c0.6-5.8,0.8-11.6,0.9-17.4
		c0.2-6.9,0.8-13.8,2.1-20.6c0.9-4.5,1.8-9,3-13.4c0-0.2,0.1-0.3,0.1-0.5c0.1-0.4,0.3-0.6,0.7-0.4c0.6,0.2,1.2,0.5,1.6,0.9
		c1.2,1.1,2.2,2.5,2.8,4c-0.3,0.3-0.8,0.4-1.1,0.6c-1.5,0.7-3.1,1.4-4.6,2.1c-0.2,0.1-0.5,0.2-0.7,0.4c-0.2,0.1-0.3,0.3-0.2,0.6
		c0.1,0.2,0.3,0.3,0.6,0.2c0.2-0.1,0.4-0.2,0.6-0.3c1.7-0.7,3.4-1.5,5.1-2.1c0.8-0.3,0.8-0.3,1.1,0.5c0.2,0.5,0.1,0.9-0.3,1.3
		c-2.6,2.5-4.5,5.5-6,8.7c-0.1,0.1-0.1,0.2-0.2,0.3c-0.1,0.3-0.1,0.5,0.2,0.7c0.2,0.1,0.5,0.1,0.7-0.1c0.2-0.2,0.3-0.3,0.4-0.5
		c0.9-1.3,1.7-2.7,2.6-4c0.8-1.2,1.6-2.3,2.6-3.3c0.2-0.2,0.4-0.5,0.7-0.6c0.3,0.2,0.2,0.5,0,0.7c-0.3,0.4-0.6,0.7-0.9,1.1
		c-1.9,2.6-3.1,5.5-4,8.5c-0.3,1-0.5,2.1-0.7,3.1c0,0.2-0.1,0.4-0.1,0.7c0,0.3,0,0.5,0.3,0.6c0.3,0.1,0.6,0,0.7-0.4
		c0.2-0.8,0.5-1.6,0.7-2.4c0.6-2.5,1.5-5,2.8-7.2c0.3-0.5,0.5-0.9,1-1.4c0,0.4-0.1,0.6-0.2,0.8c-1.9,4.6-2.4,9.4-2,14.3
		c0.4,4.9,1.7,9.7,3.2,14.4c0.7,2.2,1.3,4.4,1.7,6.7C330.2,256.6,330.2,256.9,330.1,257.3z M351.6,282.8c-0.2,3.6-0.7,7.2-1.1,10.8
		c-0.2,2.1-0.4,4.2-0.4,6.3c0,0.3,0.1,0.6-0.1,0.8c-0.3,0-0.4-0.2-0.5-0.4c-1.7-2.2-3.7-4.1-5.5-6.2c-3.2-3.7-5.8-7.8-7.1-12.5
		c-0.7-2.5-1-5.1-1.2-7.8c-0.2-2.6-0.3-5.3-0.5-8c-0.2-2.3-0.6-4.6-1.3-6.9c-1.3-4.6-2.7-9.2-4.1-13.7c-1.2-4-1.7-8-1.2-12.1
		c0.5-3.6,1.1-7.1,2.3-10.5c0.2-0.6,0.4-1.2,0.7-1.7c0.1,0,0.1,0,0.2,0c0,0.7,0,1.5,0,2.2c0.1,3,0.4,6,1.3,8.9
		c0.7,2.4,1,4.9,1.3,7.4c1.1,8.3,2.9,16.4,5.4,24.3c1.2,3.7,1.7,7.4,2.6,11.2c0.9,3.6,1.2,7.2,1.7,10.9c0.3,2.6,1,5.2,2.1,7.5
		c0.3,0.5,0.5,1.1,1.1,1.4c0.3,0.1,0.5,0.2,0.8,0.1c0.3-0.2,0.3-0.5,0.2-0.8c0-0.2-0.1-0.4-0.2-0.6c-1.2-3.2-1.8-6.6-2.5-9.9
		c-1.2-5.7-2.1-11.4-3.1-17.1c-0.5-2.7-0.7-5.4-1.2-8.1c-0.5-3.3-1.4-6.6-2.3-9.9c-1.1-4.1-2.2-8.3-3.1-12.5c-0.6-2.9-1-5.9-1-8.8
		c0-2.6,0-5.2-0.1-7.8c0-0.3-0.1-0.6,0.1-1c0.3,0,0.5,0.3,0.8,0.5c1.6,1.5,3.1,3,4.6,4.7c2.1,2.5,3.4,5.3,4.2,8.5
		c1,3.6,1.4,7.3,1.5,11.1c0.1,2.9,0.3,5.9,0.5,8.8c0.3,3.1,1,6.2,2,9.1c1.3,3.4,2.1,6.8,2.7,10.3C351.9,275.2,351.8,279,351.6,282.8
		z"/>
	<path class="st19" d="M286.2,231.7c-1-4.6-1.4-9.2-1.5-13.8c-0.1-3.5-0.4-6.9-1.3-10.3c-1.3-4.6-3.2-8.9-6.5-12.5
		c9.1-2,18.3-3.6,27.4-5.2c3.5-0.6,7-1.3,10.5-2.2c0.8-0.2,0.8-0.2,0.6-0.9c-0.8-4.2-1.3-8.5-1.6-12.8c-0.4-4.2-0.4-8.5,0.2-12.7
		c0.1-0.6,0.1-0.7-0.6-0.6c-2.9,0.3-5.8,0.4-8.7,0.4c-1.8,0-3.5,0-5.3-0.1c2.6-1,5.1-2.5,7.4-4.4c0.6-0.5,1.2-1.1,1.7-1.7
		c1.2-1.4,1.7-2.9,1.8-4.8c0-1.8-1-2.3-2.5-1.7c-1.1,0.5-2.4,0.7-3.6,0.5c-0.7-0.1-1.5-0.3-2.2-0.5c-2.7-0.7-5.2-2-7.5-3.6
		c-1.8-1.2-3.5-2.4-5.4-3.3c-5.8-2.9-11.3-2.5-16.7,1.1c-0.3,0.2-0.5,0.4-0.9,0.6c0.4-1.1,0.8-2.1,1.2-3.1c1.2-3.5,1.6-7.2,1.7-10.8
		c0.2-5.2,0.1-10.5,0.6-15.7c0.4-3.8,0.7-7.6,1.1-11.3c0.1-1.3,0.3-2.6,0.3-4c0-0.6-0.2-1.2-0.7-1.6c-0.8-0.6-1.7-0.4-2.1,0.6
		c-0.2,0.6-0.4,1.2-0.5,1.8c-0.2,0.9-0.5,1.7-1,2.5c-2.2,3.9-5.2,7.1-8.8,9.8c-2.7,2-5.5,3.8-8.5,5.3c-2.3,1.2-4.6,2.3-6.8,3.5
		c-0.1,0.1-0.3,0.2-0.4,0.1c-0.1-0.2-0.1-0.4-0.1-0.5c0-1.8,0.2-3.6,0.4-5.4c0.6-3.6,2-6.8,4.3-9.6c1.4-1.6,3-2.9,5-3.7
		c0.9-0.3,1.7-0.6,2.7-0.5c1.8,0.1,3.3,1.3,3.6,2.8c0.4,2.2-1.4,5.3-3.5,6c-0.9,0.3-1.5-0.2-1.5-1.1c0-0.4,0.2-0.7,0.3-1
		c0.1-0.3,0-0.5-0.2-0.6c-0.2-0.1-0.5-0.1-0.7,0c-0.1,0.1-0.2,0.2-0.2,0.3c-0.7,1-0.5,2.4,0.4,3.2c1,0.8,2,0.8,3.1,0.3
		c1.6-0.6,2.7-1.8,3.5-3.2c1.3-2.4,1.2-5.8-2.5-7.5c-2.1-1-4.2-0.9-6.2,0.1c-2.1,1-3.8,2.4-5.3,4.1c-3.2,3.7-4.9,7.9-5.5,12.7
		c-0.1,1-0.2,1.9-0.2,2.9c-0.1,0-0.2,0-0.2,0c-0.2-0.2-0.4-0.4-0.6-0.6c-1.3-1.4-2.6-2.6-4.4-3.3c-2.4-0.9-4.8-1.2-7.4-1
		c-1.1,0.1-2.1,0.4-3.2,0.3c-1.2-0.1-2.3-0.3-3.5-0.4c-1.6-0.1-3.1-0.7-4.4-1.7c-4.4-3.4-10.1-3.7-14.9-0.9
		c-1.1,0.7-2.3,1.3-3.6,1.8c-2.8,1-5.7,1.7-8.7,2c-1.8,0.2-3.6,0.6-5.3,1.4c-2.3,1.1-3.7,2.8-4.3,5.3c-0.2,0.9-0.3,1.9-0.4,2.8
		c0,0.3,0.1,0.6-0.2,0.9c-1.2-1-2.4-1.9-3.7-2.8c-2.8-1.8-5.8-3.4-8.7-5c-3.9-2-7.6-4.2-11.2-6.6c-6.1-4.1-11.1-9.2-14.4-15.8
		c-0.2-0.3-0.4-0.7-0.6-1c-0.3-0.4-0.8-0.5-1.2-0.3c-0.4,0.2-0.6,0.5-0.5,1c0.1,0.3,0.2,0.7,0.3,1c0.6,1.6,1.2,3.2,1.9,4.8
		c3.2,7.3,5.6,14.8,6.8,22.6c0.2,1.3,0.4,2.5,0.4,3.8c-0.8-1.2-1.5-2.4-2.3-3.5c-2.5-3.4-5.7-6.1-9.7-7.7c-2.6-1.1-5.3-1.3-8.1-0.5
		c-2.9,0.9-5.5,2.5-7.5,4.9c-4.8,5.7-5.8,12.1-3.3,19.1c0.8,2.3,2.1,4.3,4,5.9c1.2,1,2.5,1.7,4,2c3,0.6,5.9-0.9,7-3.8
		c0.7-1.8,0.8-3.6,0.2-5.4c-0.6-1.9-1.8-3.5-3.8-4.1c-2.2-0.6-4,0.5-4.7,2.7c-0.1,0.4,0.1,0.7,0.5,0.8c0.4,0.1,0.7-0.1,0.9-0.4
		c0.2-0.4,0.5-0.7,0.8-1.1c0.8-0.8,1.6-0.9,2.6-0.4c0.4,0.3,0.8,0.6,1.1,1c1.7,2.1,1.8,4.5,0.9,6.9c-0.9,2.3-3.1,3.2-5.4,2.3
		c-1.1-0.4-1.9-1.1-2.6-2c-1.4-1.6-2.4-3.5-3.1-5.5c-1.3-3.7-1.7-7.5-0.5-11.4c1.6-4.9,4.7-8.4,9.7-10.2c1.3-0.5,2.7-0.6,4.1-0.4
		c2.4,0.4,4.4,1.4,6.3,2.8c4.3,3.2,7,7.6,8.5,12.7c0.5,1.7,0.9,3.4,1.2,5.2c0.1,0.7,0.3,1.3,0.2,2c-0.9-1.1-1.9-2.1-2.7-3.3
		c-1.6-2.4-3.4-4.5-4.8-7c-0.2-0.4-0.4-0.7-0.8-0.9c-0.5-0.4-1.1-0.4-1.6-0.1c-0.5,0.3-0.7,0.8-0.5,1.3c0.3,1.2,0.1,2.4-0.1,3.6
		c-0.5,2.8-1.3,5.5-1.7,8.3c-0.5,3.4-1,6.9-0.5,10.4c0.4,3,1.2,5.8,2.3,8.6c-0.7,0-1.4,0-2.1,0c-6.8,0.1-13.7,0.5-20.5-0.1
		c-0.7-0.1-0.7,0-0.8,0.6c-0.1,1.4-0.3,2.7-0.4,4.1c-0.5,4.3-0.8,8.6-1,12.9c-0.1,2.7-0.1,5.3-0.2,8c0,0.3,0,0.7,0,1
		c0,0.3,0.1,0.5,0.4,0.5c0.2,0,0.4,0.1,0.6,0.1c4.6,1,9.2,1.9,13.8,2.6c2.6,0.4,5.2,0.9,7.8,1.4c-0.4,0.6-0.8,1.2-1.1,1.8
		c-1.6,3.4-2.3,7-2.2,10.7c0.1,3.2,0.8,6.4,1.3,9.6c0.6,3.2,1.2,6.3,1.5,9.6c0.1,0.8,0.1,1.6,0.2,2.4c0.1,0.6,0.3,0.9,0.8,1
		c0.5,0.1,0.9-0.1,1.2-0.5c0.2-0.2,0.3-0.4,0.4-0.6c1.2-1.8,2.5-3.6,3.9-5.2c0.3-0.3,0.5-0.6,1-0.4c0.1,0.3,0,0.5,0,0.7
		c-0.5,2.4-1.1,4.8-1.7,7.2c-0.5,1.8-1.1,3.5-1.6,5.2c-0.1,0.4-0.1,0.8,0.2,1c0.3,0.2,0.7,0.1,1-0.1c0.1-0.1,0.2-0.1,0.3-0.2
		c2.4-2.1,5.1-3.8,7.8-5.6c2.2-1.5,4.6-2.9,7.1-4.1c3.7-1.8,7.4-3.7,11.1-5.6c0.7-0.4,1.4-0.8,2.1-1.2c-0.3,1.3-0.2,2.7,0.6,4
		c0.7,1.4,0.8,2.7,0.3,4.2c-0.9,2.9-0.9,5.9-0.7,8.9c0.1,1.9,1.1,3.3,2.7,4.4c0.8,0.6,1.7,1.1,2.6,1.6c1.7,1,2.9,2.3,3.8,4
		c1,1.8,1.7,3.8,2.2,5.8c0.7,2.9,1.2,5.8,1.1,8.7c0,3.2-0.5,6.4-1.5,9.4c-0.1,0.4-0.2,0.9-0.3,1.3c-0.4,1.3-0.1,2.5,0.6,3.6
		c0.2,0.3,0.3,0.5,0.5,0.8c1.2,1.8,2,3.7,2.4,5.7c0.6,3.1,2.3,5.5,4.9,7.2c0.8,0.5,1.6,1,2.4,1.6c1.1,0.8,1.9,1.8,2.4,3.1
		c0.5,1.3,0.8,2.6,0.9,4c0.4,4.1,0.5,8.1,0.7,12.2c0.2,3.1,0.1,6.2,0.2,9.3c0.2,6.7,2.8,12.3,7.1,17.3c0.6,0.7,1.3,1.4,2.1,1.9
		c1.2,0.7,2.2,0.4,2.7-0.9c0.3-0.8,0.5-1.6,0.6-2.4c0.3-1.2,0.7-2.4,1.1-3.6c0.2-0.6,0.6-1.1,1-1.6c0.4-0.5,1-0.7,1.7-0.7
		c1.7,0.2,2.9,1.2,3.3,2.9c0.1,0.4,0.2,0.9,0.2,1.3c0.2,1.3,0.4,2.7,0.9,4c0.6,1.4,1.5,1.7,2.8,0.9c0.9-0.5,1.5-1.2,2.2-1.9
		c1.4-1.5,2.4-3.2,3.5-5c2.3-3.8,3.4-8,3.5-12.4c0.1-3.1,0-6.3,0.2-9.4c0.1-2.4,0.3-4.8,0.4-7.2c0.1-1.9,0.2-3.9,0.4-5.8
		c0.4-3,1.7-5.3,4.3-6.8c0.3-0.2,0.6-0.4,0.9-0.6c2.9-1.8,4.7-4.3,5.4-7.7c0.4-2,1.2-3.7,2.2-5.4c0.3-0.5,0.7-1.1,0.9-1.6
		c0.4-0.8,0.5-1.5,0.3-2.4c-0.3-1.5-0.8-3-1.2-4.5c-0.9-4.1-1-8.1-0.3-12.2c0.5-3,1.3-6,2.7-8.8c0.9-1.8,2.2-3.3,4-4.3
		c0.8-0.5,1.7-1,2.5-1.5c1.7-1.1,2.6-2.7,2.7-4.7c0.2-3.1,0.1-6.2-0.9-9.2c-0.3-1-0.3-2.1,0.2-3c0.1-0.2,0.2-0.5,0.3-0.7
		c0.5-1.1,0.7-2.1,0.6-3.1c0.9,0.7,1.8,1.3,2.8,1.8c2.1,1.2,4.2,2.3,6.4,3.3c5.3,2.7,10.6,5.6,15.2,9.4c0.5,0.4,1.1,0.8,1.6,1.1
		c0.3,0.2,0.6,0.3,1,0.4c1,0.1,1.6-0.5,1.4-1.5C286.4,232.7,286.3,232.2,286.2,231.7z M280.8,208.4c0.3,1.5,0.5,3,0.6,4.6
		c0,0.1,0,0.2,0,0.2c-0.2,0.1-0.3-0.1-0.3-0.1c-1-1.3-2.3-2.3-3.8-3.1c-1.5-0.9-3-1.7-4.4-2.6c-1.6-0.9-2.8-2.2-4.1-3.5
		c-0.2-0.2-0.4-0.4-0.5-0.7c0.8-0.7,1.6-0.8,2.5-0.6c1.2,0.2,2.4,0.4,3.6,0.6c2.7,0.6,4.6,2.2,6.1,4.4
		C280.7,207.9,280.7,208.2,280.8,208.4z M279.4,203.9c-2.4-1.7-5.1-2.2-8-2.7c1.6-1.6,2.9-3.2,3.8-5.3
		C277.2,198.3,278.6,200.9,279.4,203.9z M267.8,201.2c-1.1,0.6-2.3,0.8-3.6,0.6c-1-0.2-2.1-0.3-3.1-0.5c-2.1-0.2-4,0.1-6,0.8
		c-0.1,0-0.1,0-0.2,0.1c-1,0.4-2,0.8-3,1.1c-3,1.1-4.8-0.2-6.2-2.2c-0.2-0.3-0.5-0.7-0.6-1.2c1.7-0.2,3.1-0.7,4.2-1.8
		c0.2-0.2,0.5-0.1,0.7-0.1c3.4,0.3,6.2-0.8,8.3-3.4c1.9-2.3,4-4.3,6.5-6c1.8-1.2,3.4-2.7,4.7-4.3c1.9-2.3,2.7-4.9,1.9-7.9
		c-0.1-0.4-0.1-0.6,0.2-0.9c1.8-1.4,2.6-3.4,2.8-5.6c0-0.1,0-0.2,0.1-0.4c0,0,0,0,0.1-0.1c0.1,0,0.2,0,0.3,0.1
		c1,1.2,2.2,2.1,3.3,3.3c2.4,2.7,2.6,5.8,2,9.1c-0.1,0.7-0.5,1.3-0.9,1.8c-0.4,0.5-0.8,0.9-1.2,1.4c-0.9,1.1-1.6,2.3-2.1,3.7
		c-0.8,2.2-1.7,4.3-2.6,6.4c-0.1,0.2-0.2,0.4-0.3,0.6C271.8,198.2,270.1,199.9,267.8,201.2z M239.7,208.5c-0.6-0.2-1.2-0.4-1.8-0.7
		c-2.3-1.2-4.8-1.5-7.4-1.2c-1.2,0.1-2.4,0.2-3.6,0.1c-1.9-0.1-3.1-1-3.8-2.8c-0.3-0.9-0.6-1.9-0.7-2.8c-0.3-1.8-0.8-3.6-1.3-5.4
		c-0.2-0.7-0.2-0.8,0.4-1.1c1.3-0.7,2.5-1.5,3.6-2.5c0.1,0.1,0.2,0.1,0.2,0.1c2,4.2,5.5,6.2,10,6.9c1.7,0.3,3.4,0.2,5.1,0.3
		c0.7,0.1,1.4,0.1,2.2,0.2c0.3,0,0.5,0.1,0.5,0.4c0.1,1.7,1.3,2.6,2.5,3.5c0.6,0.4,1.3,0.7,2,0.9c0.6,0.2,0.6,0.3,0.3,0.9
		C246.2,208,242.6,209.3,239.7,208.5z M189.6,208.1c-0.8-0.1-1.6-0.5-2.3-0.9c-0.5-0.3-1.1-0.6-1.7-0.9c-2.7-1.4-5.7-2-8.7-2.2
		c-0.1,0-0.1,0-0.2,0c-2.4-0.2-4.2-1.3-5.7-3.2c-0.6-0.7-1-1.5-1.4-2.3c-0.6-1.4-1-2.9-1.3-4.4c0-0.1,0-0.2,0-0.3
		c0.2-0.1,0.4,0,0.5,0.1c0.4,0.1,0.8,0.3,1.1,0.5c1.9,0.9,3.9,0.9,5.8,0c0.6-0.3,0.9-0.2,1.3,0.3c0.8,0.8,1.6,1.6,2.4,2.4
		c0.7,0.7,1.6,1.2,2.6,1.6c0.6,0.2,1.3,0.4,1.9,0.2c0.9-0.3,1.5,0,2.2,0.7c0.7,0.9,1.8,1.4,2.9,1.7c1.4,0.4,2.7,0.3,4.1-0.3
		c1.1-0.5,2.1-1.1,3.1-1.7c1.9-1.2,3.9-1.9,6.1-2.1c1.1-0.1,2.2-0.2,3.3-0.4c0.6-0.1,0.7,0,0.6,0.6c-0.2,1.2-0.8,2.3-1.8,3
		c-0.6,0.5-1.2,0.9-1.8,1.3c-1.1,0.7-2,1.6-2.9,2.6C197.1,207.7,193.6,208.7,189.6,208.1z M150.3,166.2c0.9,0.2,1.6,0.3,2.3,0.4
		c0.4,0.1,0.5,0.3,0.6,0.6c0.1,0.8,0.2,1.6,0.2,2.6C152.3,168.5,151.2,167.6,150.3,166.2z M153.4,186c0.2-0.1,0.4-0.1,0.6,0.2
		c0.4,0.8,0.9,1.5,1.4,2.1c0.2,0.2,0.1,0.4-0.1,0.5c-1.7,0.8-3.4,1.3-5.3,0.5c-0.6-0.3-1.2-0.5-1.9-0.9
		C149.8,187.4,151.5,186.6,153.4,186z M239.1,140c0.3,0.9,0.4,1.8,0.6,2.8c0.1,0.4,0,0.7-0.5,0.8c-2.5,0.8-4.3,2.5-5.8,4.6
		c-0.8,1.1-1.6,2.3-2.6,3.3c-0.4,0.4-0.7,0.8-1.3,1.2c0.2-0.9,0.6-1.5,0.9-2.1c0.6-1,1.3-1.9,1.9-2.9c0.5-0.7,0.9-1.5,1.1-2.3
		c0.3-1.1,0.4-2.2-0.1-3.2c-0.1-0.3-0.1-0.5,0.1-0.7c1.6-1.6,2-3.6,1.9-5.8c-0.1-3.1-1.6-5.3-4.2-6.9c-0.5-0.3-0.9-0.6-1.4-0.9
		c-0.3-0.2-0.6-0.4-0.7-0.8c2.6,0.4,5.1,1.1,7.3,2.7c0.3,0.2,0.6,0.5,0.8,0.8c1.1,1.1,1.6,2.4,1.4,3.9
		C238.4,136.4,238.6,138.2,239.1,140z M271,121.1c0,0.5-0.2,0.8-0.5,1.1c-1.4,1.2-2.9,2.2-4.6,3c-1.4,0.7-2.8,1.5-4,2.4
		c2.4-4.8,6.1-8.7,9-13.2c0.3,0.2,0.2,0.4,0.2,0.6C271,117,271,119,271,121.1z M264.8,127.1c2-1.2,4.2-2.1,6.1-3.6
		c0.3,0.1,0.2,0.3,0.2,0.4c0,1.7,0,3.4,0.1,5c0,0.5-0.2,0.7-0.6,0.8c-3.4,1.3-6.9,1.9-10.3,2.7c-0.5,0.1-1,0.2-1.5,0.4
		c0-0.1,0-0.2,0-0.2C260.5,130.6,262.4,128.6,264.8,127.1z M265.5,132.7c1.3-0.3,2.6-0.7,3.8-1.1c0.6-0.2,1.1-0.4,1.8-0.5
		c0,1.6-0.2,3.1-0.4,4.6c0,0.4-0.3,0.5-0.6,0.6c-1.1,0.2-2.2,0.4-3.3,0.6c-2.6,0.5-5.1,0.6-7.7,0.3c-1.5-0.2-3-0.1-4.7,0.3
		c0.9-1.3,1.7-2.4,3.2-2.8C260.3,134.1,262.8,133.2,265.5,132.7z M258.4,138.3c3,0.5,6,0.2,9-0.3c1-0.2,1.9-0.3,3-0.5
		c-0.2,1.3-0.6,2.4-0.9,3.5c-0.1,0.3-0.3,0.4-0.6,0.4c-0.3,0-0.6,0-0.9,0.1c-3.6,0.1-7.1-0.3-10.6-1.1c-1.1-0.3-2.1-0.5-3.3-0.5
		c-0.1,0-0.2,0-0.2-0.1c0-0.2,0.1-0.2,0.2-0.3C255.4,138.7,256.8,138.1,258.4,138.3z M270.1,148.6c3.6,3.1,6.2,6.8,7.2,11.5
		c0,0.2,0.1,0.4,0.1,0.6c0,0.1,0,0.1,0,0.2c0.3,1.6,1,2.9,2.2,4c0.2,0.2,0.5,0.4,0.7,0.7c1.4,1.6,2.2,3.4,1.9,5.6
		c-0.1,0.9-0.2,1.9-0.4,2.8c0,0.2-0.1,0.4-0.2,0.5c-0.2,0-0.2-0.1-0.3-0.2c-1.2-2-2.9-3.5-4.8-5c-0.2-0.1-0.3-0.3-0.5-0.4
		c-0.9-0.7-1.5-1.5-1.8-2.7c-0.5-2-1.7-3.5-3.6-4.3c-0.7-0.3-1.4-0.7-2.1-1.1c-1.4-0.9-2.8-1.9-4-3.1c-2.9-2.8-6.6-4.1-10.4-4.9
		c-2.2-0.5-4.4-0.7-6.6-0.2c-0.9,0.2-1.8,0.3-2.6,0.2c-0.4,0-0.8,0-1.1-0.2c0.9-4,4.6-6.8,8.6-6.5c0.4,0,0.9,0.1,1.3,0.1
		c1.6,0.2,3.3,0.2,4.9-0.2c1.2-0.3,2.4-0.3,3.6-0.4C265.2,145.6,267.8,146.6,270.1,148.6z M278.1,158.3c-0.2-0.7-0.5-1.4-0.7-2.1
		c0.1-0.1,0.1-0.1,0.2-0.2c2.3,0.9,3.7,2.9,5.5,4.6c-0.2,0.1-0.4,0.2-0.5,0.2c-0.3,0.1-0.7,0.2-1,0.3c-0.6,0.2-1.1,0.4-1.7,0.6
		c-0.4,0.2-0.6,0.1-0.8-0.3c-0.1-0.2-0.1-0.4-0.2-0.6C278.6,159.9,278.4,159.1,278.1,158.3z M227,182.6c-0.7-1.2-1.4-2.4-2.1-3.6
		c-1.1-2-1-1.4,0.1-3.2c1.5-2.5,2.8-5.1,3.6-7.9c0.3-1,0.6-1.9,1-2.9c0.3-0.6,0.6-1.2,1-1.7c0.6-0.7,1.3-1.3,2.2-1.6
		c0.9-0.3,1-0.2,1,0.7c0,1.3,0,2.7,0.6,3.9c0.1,0.3,0.1,0.5-0.1,0.7c-1.5,1.6-1.6,3.5-1.2,5.6c0.2,0.8,0.5,1.5,0.8,2.2
		c0.2,0.4,0.3,0.8,0.4,1.2c0.1,0.4,0,0.6-0.4,0.7c-0.7,0.1-1.3,0.4-2,0.7c-2.6,1.3-3.3,4.1-1.7,6.5c0.5,0.8,1.1,1.5,1.8,2.2
		c0.6,0.7,1,1.4,1.1,2.3c0.1,0.7,0.3,1.5,0.4,2.2c0.5,2.3,2,3.9,4.1,4.9c0.6,0.3,1.2,0.4,1.8,0.4c0.7,0,1.5,0,2.2,0
		c2.1-0.1,4,0.5,5.9,1.5c-0.8,0.6-1.6,0.8-2.4,0.9c-0.6,0.1-1.2,0.1-1.8,0c-1.9-0.2-3.8-0.3-5.7-0.3c-1.1,0-2.3-0.2-3.4-0.5
		c-2.8-0.7-4.8-2.4-6.3-4.9c-0.2-0.4-0.4-0.7-0.6-1.1c-0.6-1-0.7-2-0.1-3.1C228.5,186.7,228.1,184.6,227,182.6z M164.6,157.5
		c-0.8-0.2-1.6-0.4-2.4-0.6c-0.2-0.1-0.4-0.2-0.5-0.5c1.5-0.6,3.2-0.8,4.8-0.9c-0.5,0.6-1.1,1.1-1.5,1.8
		C165,157.5,164.9,157.5,164.6,157.5z M224,141c0.1,0.3,0.2,0.5,0.3,0.8c0.7,1.8,0.1,3.2-1.2,4.4c-0.3,0.3-0.7,0.6-1.3,1
		c-0.2-2.1-1.4-3.2-2.8-4.2c-0.5-0.4-0.7-0.8-0.6-1.5c0.3-1.8-0.1-3.4-1.3-4.8c-0.9-1.1-2-2.1-3.1-2.9c-0.7-0.5-1.4-1-2.3-1
		c-0.2,0-0.4,0-0.5-0.2c-0.5-0.7-1.2-1.2-1.8-1.9c1-0.8,2.2-1.4,3.5-1.2c1.6,0.2,3.3,0.4,4.9,0.7c2.7,0.5,5.6,3.2,5.4,6.8
		C223.2,138.5,223.5,139.7,224,141z M226,141.7c-0.3-1-0.3-0.9,0.7-1c2-0.3,3.7,0.5,5.1,1.7c0.6,0.5,0.5,1.3,0.3,2
		c-0.1,0.4-0.3,0.8-0.5,1.1c-0.3,0.5-0.6,0.9-0.9,1.3c-1.1,1.5-1.9,3.2-2.4,5.1c-0.6,2.2-0.4,1.8-2.3,2.3c-1.7,0.4-3.2,1-4.8,1.7
		c-2.2,0.9-4.2,2.1-6.4,2.8c-0.7,0.2-1.4,0.4-2.1,0.5c-0.3,0.1-0.6,0-0.8-0.4c-0.8-1.8-2.1-3.2-3.6-4.4c-0.1-0.1-0.3-0.3-0.4-0.4
		c0.6,0.1,1,0.4,1.5,0.7c1.5,1.1,3.2,1.3,5,0.8c3.2-1,5.8-2.8,7.3-5.9c0.1-0.3,0.3-0.4,0.6-0.6c1-0.6,1.9-1.2,2.7-2.1
		C226,145.4,226.5,143.7,226,141.7z M212.9,160.7c0.5-0.1,1-0.2,1.5-0.3c1.1-0.3,2.1-0.6,3.3-1.1c0,0.3-0.1,0.6-0.2,0.9
		c-0.2,0.8-0.4,1.5-0.5,2.2c-0.1,1-0.1,1.9-0.2,2.9c-0.4,0.1-0.7-0.2-1-0.4c-0.9-0.5-1.8-1-2.7-1.2c-0.3-0.1-0.4-0.2-0.4-0.5
		c-0.1-0.7-0.2-1.4-0.3-2.1C212.5,160.9,212.6,160.7,212.9,160.7z M210.9,141.7c0.1,0.5,0.4,0.7,0.9,0.4c0.1,0,0.1-0.1,0.2-0.1
		c0.9-0.7,1.3-2.5,0.8-3.6c-0.5-1.2-1.7-1.8-3-1.6c-0.5,0.1-1,0.2-1.6,0.3c1.2-2.2,3.3-2.7,5.1-1.4c1.2,0.8,2.2,1.9,3,3.1
		c1.1,1.7,0.9,4.1-0.4,5.8c-1.4,1.8-3.2,2.7-5.4,3.1c-0.8,0.1-1.6,0.1-2.3-0.2c-1-0.3-1.8-1-2.3-2c-0.6-1.3-1.2-2.5-2-3.6
		c-0.7-1-0.2-2,0.9-2.1c1.5-0.1,2.9-0.4,4.4-0.9c1.1-0.3,1.9,0.4,1.8,1.6C211,141,210.8,141.3,210.9,141.7z M206.6,148.8
		c1.3,0.9,2.9,0.9,4.4,0.5c3-0.7,5.4-2.3,6.8-5.1c0-0.1,0.1-0.1,0.2-0.2c0.5,0.7,1.2,1.2,1.7,1.8c1,1.1,1.1,2.1,0.4,3.4
		c-0.1,0.2-0.2,0.4-0.4,0.6c-1.8,2.2-4.1,3.4-6.8,3.7c-0.9,0.1-1.8,0-2.7-0.5c-1.4-0.7-2.8-1.3-4.3-1.7c-0.8-0.2-1.6-0.5-2.3-1
		c-1.1-0.7-1.5-1.8-1.7-3.1c0.4-0.1,0.5,0.1,0.7,0.2c0.5,0.2,1,0.5,1.5,0.5C205,147.9,205.8,148.3,206.6,148.8z M209.7,133.4
		c-0.4,0.3-0.7,0.5-1,0.7c-0.8,0.6-1.5,1.3-1.9,2.2c-0.2,0.4-0.5,0.6-1,0.7c-2.3,0.2-3.7,2.1-3.5,4.4c0.1,0.5,0.3,0.9,0.5,1.3
		c0.3,0.5,0.6,1.1,0.8,1.6c0.3,0.6,0.5,1.3,0.7,2c-3.4-0.4-5.3-3.6-4-6.6c0.3-0.8,0.8-1.5,1.4-2.1c0.9-1,1.8-2.1,2.5-3.2
		c0.6-0.9,1.4-1.5,2.4-1.7C207.8,132.3,208.8,132.5,209.7,133.4z M200.5,136.2c-2.4,2.3-2.6,6.6-0.5,9.1c0.3,0.4,0.5,0.7,0.3,1.3
		c-0.2,0.7,0,1.4,0.2,2c0.2,0.7,0.6,1.4,1.1,2.2c-1.4-0.3-2.7-0.6-4-0.8c-0.8-0.1-1.6-0.2-2.5,0c-0.5,0.1-0.9,0-1.3-0.4
		c-0.3-0.4-0.7-0.8-1.1-1.2c-0.7-0.9-0.6-1.7,0.2-2.5c0.4-0.4,0.8-0.8,1.2-1.2c1.4-1.5,2.1-3.3,2.2-5.3c0-0.5,0-1,0.1-1.5
		c0.4-1.7,1.6-2.6,3.3-2.5c0.4,0,0.9,0.1,1.3,0.3C201,135.9,200.7,136,200.5,136.2z M195.1,151.5c0.7-0.1,1.3-0.1,2,0.1
		c4.1,0.8,7.6,2.5,10.5,5.6c0,0,0.1,0.1,0.1,0.1c1.4,1.5,2.2,3.2,2.5,5.2c0.1,0.9,0.3,1.7,0.5,2.6c0.4,1.6,1.1,3.1,2,4.5
		c0.8,1.2,1.7,2.3,2.4,3.5c1,1.6,1.5,3.3,1.4,5.2c-0.1,1.9-1.1,3-2.8,3.7c-0.2-0.6-0.3-1.1-0.4-1.6c-0.4-1.1-0.8-2.1-1.4-3.1
		c-1-1.6-2.1-3.2-3.1-4.8c-0.4-0.7-1-1.2-1.7-1.6c-0.3-0.2-0.5-0.4-0.5-0.8c-0.3-2.9-1.7-5.3-4.2-6.9c-1.5-1-2.8-2.3-4.1-3.6
		c-0.1-0.1-0.2-0.3-0.4-0.4c-0.4-0.4-0.6-0.8-0.7-1.3c-0.3-2.1-1.1-4-2.1-5.9C195.2,152,195,151.8,195.1,151.5z M196.1,160.9
		c0.1,0.1,0.1,0.1,0.2,0.2c1.6,1.5,3.4,3,5.3,4.2c2.9,1.8,4.6,5.8,2.8,9.6c-0.4,0.8-0.7,1.7-1.4,2.4c-0.2,0.2-0.4,0.5-0.9,0.6
		c-0.1-1-0.1-2-0.1-2.9c0-1.1-0.1-2.1-0.3-3.2c-0.6-2.2-2-3.6-4.1-4.3c-1.5-0.5-3-0.6-4.5-0.4c-0.7,0.1-1-0.1-1.4-0.6
		c-1.6-2-3.7-3.2-6.2-3.7c-0.1,0-0.1,0-0.2,0c-0.3-0.1-0.7-0.1-1-0.1c-1.7-0.1-3.3,0.4-4.8,1.4c-1.4,1-2.5,2.1-3.3,3.6
		c-0.1,0.2-0.1,0.4-0.5,0.5c-0.3-1.2-0.7-2.4-0.5-3.7c0.1-0.9,0.6-1.6,1.3-2.2c0.2-0.1,0.3-0.2,0.5-0.3c0.4-0.3,0.9-0.6,1.4-0.8
		c1.1-0.5,2.2-1.1,3.2-1.8c0.7-0.5,1.4-0.8,2.1-1.2c3.1-1.6,6.1-1.2,9,0.4C193.9,159.1,195.1,159.9,196.1,160.9z M188.2,178.7
		c-0.3,0.1-0.5,0.3-0.7,0.5c-1.6,1.5-3.5,1.7-5.5,1.1c-0.3-0.1-0.6-0.2-0.9-0.3c-1.2-0.6-1.7-1.9-0.9-3c0.6-1,0.9-2,0.8-3.1
		c0-0.5,0.1-1,0.1-1.5c0.1-0.6,0.4-1,1.1-1.1c1.4-0.3,2.7-0.2,4,0.4c1.2,0.6,2.3,1.3,3.3,2.2c0.9,0.8,1.8,1.6,2.8,2.2
		c1.2,0.7,1.7,1.8,1.8,3.2c0,1.9-0.6,3.5-2.2,4.6c-1,0.7-2.1,0.8-3.2,0.3c-0.7-0.3-1.4-0.8-2.2-1.3c0.8-0.4,1.5-0.7,1.9-1.3
		c0.5-0.6,0.9-1.2,0.9-2C189.4,178.7,188.9,178.4,188.2,178.7z M190.6,171.7c-0.4-0.6-0.7-1.2-1.1-1.9c-1.6-2.4-5.5-3.5-8.6-0.9
		c-0.8,0.7-1.2,1.6-1.3,2.7c0,0.9-0.1,1.8-0.1,2.8c0,0.6-0.2,1.2-0.5,1.8c-0.9,1.7-0.7,3.3,0.7,4.7c0.7,0.7,1.5,1.2,2.5,1.6
		c0.4,0.2,0.8,0.4,1.1,0.7c0.5,0.6,1.2,0.9,1.9,1.2c0.8,0.3,1.6,0.8,2.4,1.4c-0.8,0.4-1.5,0.5-2.3,0.6c-1.7,0.1-3.1-0.3-4.2-1.7
		c-0.1-0.1-0.1-0.1-0.2-0.2c-0.9-1.4-2.2-2.1-3.9-2.3c-1.1-0.1-2.1-0.5-3.1-1c-0.8-0.3-1.3-0.9-1.6-1.7c-0.8-1.8-0.7-3.6,0.2-5.4
		c0.2-0.4,0.5-0.7,0.9-0.9c1.8-1,3-2.5,3.9-4.4c1.5-2.9,4.7-4.8,8.5-3.9c2.9,0.7,4.9,2.4,6.2,5c0.6,1.3,1,2.6,1,4
		C191.8,173.4,191.2,172.6,190.6,171.7z M187,188.2c0.5-0.2,1.2-0.4,1.7-0.7c0.9-0.6,1.7-1,2.8-0.8c0.4,0.1,0.9-0.2,1.2-0.4
		c3.8-2.1,4.5-6.9,2.8-10c-0.2-0.3-0.3-0.6-0.6-0.8c-0.5-0.4-0.7-0.9-0.6-1.6c0.2-1.5-0.1-3-0.6-4.4c-0.1-0.2-0.2-0.5-0.2-0.7
		c0,0,0-0.1,0.1-0.1c1.5,0,3,0.2,4.3,1c1.1,0.7,1.7,1.7,2,2.9c0.3,1.3,0.3,2.6,0.5,3.9c0.3,2.1,0.6,4.2,0.9,6.3
		c0.1,0.9,0.1,1.7-0.1,2.5c-0.4,1.6-1.3,2.8-2.8,3.6c-1.8,0.8-3.7,1.2-5.5,1.6c-2.5,0.6-4.5-0.4-6.4-1.8c-0.1-0.1-0.1-0.2-0.1-0.2
		C186.4,188.3,186.7,188.4,187,188.2z M174.4,170.5c-0.3,0.2-0.5,0.5-0.8,0.7c-1.8,1.3-2.6,3.2-3,5.3c-0.3,2,0.1,3.8,1,5.5
		c0.4,0.8,1.1,1.4,1.9,1.9c0.7,0.4,1.4,0.8,2.1,1c1.1,0.4,2,1,2.9,1.8c0.2,0.2,0.5,0.4,0.7,0.6c0.9,0.9,1.9,1.4,3.2,1.5
		c0.6,0,0.8,0.2,1.1,0.8c1,1.9,2.7,3,4.7,3.5c0.2,0.1,0.4,0.1,0.6,0.2c0,0,0,0,0.1,0.1c-1,1.3-2.2,2.5-3.8,3c-1.5,0.4-2.9,0-4-1
		c-0.8-0.7-1.4-1.4-2.1-2.2c-0.3-0.4-0.6-0.7-0.9-1.1c-1.5-1.8-3.3-3.2-5.5-4.1c-0.6-0.3-1.2-0.6-1.8-0.9c-1.6-0.8-2.7-2-3.4-3.6
		c-0.7-1.5-1.1-3.1-1.5-4.7c-0.4-1.7-0.8-3.4-1.5-5c-0.3-0.8-0.6-1.5-0.7-2.4c-0.4-2.2,0.5-4.1,2.4-5.3c0.9-0.5,1.8-1,2.9-1.2
		c1.4-0.3,2.8-0.6,4.3-0.9c0.1,0.8,0,1.6,0.2,2.4c0.2,1.2,0.4,2.4,1.1,3.4C174.7,170.2,174.6,170.3,174.4,170.5z M188,196.9
		c1-1,1.8-2.2,2.5-3.4c0.2-0.3,0.4-0.5,0.7-0.6c1.4-0.4,2.9-0.8,4.3-1c1.1-0.1,2.1-0.4,3.1-0.8c1.8-0.8,3-2.1,3.6-3.9
		c0.7-1.9,0.7-3.8,0.3-5.7c-0.1-0.5-0.1-0.9-0.2-1.4c-0.1-0.4,0-0.6,0.4-0.7c1.1-0.5,1.8-1.4,2.3-2.4c0.6-1,1-2.2,1.3-3.3
		c0.1-0.2,0-0.4,0.3-0.7c0.5,0.4,0.9,0.8,1.3,1.3c0.8,1.1,1.6,2.2,2.4,3.3c0.7,0.9,1.2,1.9,1.6,3c0.4,1.1,0.4,2.2,0,3.4
		c-0.6,1.8-1,3.6-1.3,5.4c-0.2,1.5-1,2.6-2.3,3.4c-1.2,0.7-2.5,1.1-3.9,1.6c-0.7,0.2-1.3,0.4-2,0.6c-2.3,0.6-4.5,1.5-6.5,2.8
		c-0.8,0.5-1.7,0.9-2.5,1.3c-0.9,0.4-1.9,0.4-2.9,0.1c-1-0.3-1.8-0.9-2.7-1.4C187.8,197.4,187.8,197.2,188,196.9z M208.4,196
		c2.3-1.2,3.5-3.2,4-5.7c0.3-1.8,0.7-3.6,1.2-5.4c0.1-0.4,0.3-0.6,0.7-0.8c2.7-0.7,4.5-3.3,4.2-6.3c-0.2-2.2-0.9-4.1-2-6
		c-0.7-1.1-1.4-2.2-2.1-3.3c-0.5-0.9-1-1.8-1.2-3c2.9,1.5,5.1,3.4,6.9,5.9c0.6,0.9,1.1,1.9,1.4,2.9c0.7,2.8,2.1,5.4,3.5,7.9
		c0.3,0.5,0.5,0.9,0.8,1.4c1,2.1,0.7,4-0.9,5.6c-0.6,0.6-1.2,1-1.9,1.5c-0.8,0.5-1.5,1-2.3,1.5c-1.8,1.2-3.2,2.7-4.2,4.7
		c-0.6,1.1-1.1,2.3-1.7,3.4c-0.4,0.7-0.9,1.3-1.4,1.9c-1.5,1.6-3.2,2.3-5.4,2c-1.2-0.2-2.4-0.6-3.6-0.9c0-0.4,0.2-0.4,0.4-0.5
		c2-1.5,3-3.5,3.2-6C207.9,196.5,207.9,196.2,208.4,196z M242.3,162.5c0.1-0.2,0.3-0.3,0.4-0.5c1.4-1.5,3.1-2,5.1-1.6
		c1.6,0.2,2.9,0.9,4.3,1.7c0,0,0.1,0,0.1,0c0.6,0.4,1.2,0.7,1.8,1c1.4,0.8,3,1.1,4.6,0.9c2.1-0.2,2.6,0.3,3.2,2.3
		c0.5,1.8,0.2,3.4-0.5,5.1c-0.4-0.1-0.4-0.4-0.5-0.6c-0.5-0.9-1.1-1.6-1.8-2.3c-0.9-0.9-2-1.3-3.2-1.3c-0.4,0-0.7-0.1-1-0.3
		c-1.8-1.2-3.6-1.1-5.3,0c-1.3,0.8-2.5,1.6-3.9,2.3c-1.8,0.9-2.5,2.4-2.4,4.4c0,0.5-0.1,0.8-0.7,0.9c-1.2,0.2-1.8,1-2,2.1
		c-0.2,0.7-0.3,1.4-0.3,2.2c0,2-0.7,3.8-1.3,5.6c-0.1,0.3-0.2,0.4-0.5,0.3c-0.2-0.1-0.4-0.1-0.6-0.2c-1.4-0.5-1.8-1-1.7-2.5
		c0-0.4,0.1-0.9,0.2-1.3c0.4-1.7,0.2-3.3-0.4-5c-0.2-0.7-0.5-1.4-0.7-2.1c-0.3-0.8-0.4-1.5-0.3-2.3c0.1-1.7,0.8-3,2.4-3.8
		c1.8-0.8,3.2-2.1,4.2-3.8C241.7,163.3,242,162.9,242.3,162.5z M247.2,185c0.6,0,1.1-0.1,1.7-0.2c0.8-0.1,1.5,0,2.2,0.4
		c2.4,1.4,4.9,0.3,6-2.2c0.4-1,0.7-2.1,0.5-3.2c-0.1-0.6-0.3-1.2-0.7-1.6c-0.5-0.6-0.5-1.3-0.3-2c0.3-1,0.6-1.9,0.7-2.9
		c0.2-1.3,0.1-2.5-0.5-3.7c-0.1-0.1-0.1-0.2-0.1-0.4c0.4-0.1,0.7,0.1,1,0.3c0.8,0.5,1.4,1.2,1.8,2c0.2,0.3,0.4,0.7,0.5,1
		c0.5,1.2,1.3,2.1,2.4,2.7c0.7,0.4,1.4,1,1.9,1.7c1,1.6,0.9,3.1-0.5,4.5c-0.5,0.5-1.1,0.9-1.7,1.3c-1.9,1.1-3.6,2.4-5.3,3.9
		c-0.7,0.6-1.4,1.1-2.1,1.6c-1.2,0.8-2.5,1.1-4,1.1c-1,0-2.1-0.2-3.1-0.4c-1.2-0.3-2.5-0.4-3.8-0.2c-0.2,0-0.3,0-0.5,0
		c-2.2,0.1-3.6-1.5-3.1-3.6c0.1-0.4,0.2-0.7,0.3-1.1c0.7-1.7,1.2-3.5,1.7-5.2c0.2-0.7,0.4-1.5,1.2-1.9c0.3,0.5,0.5,1,0.9,1.5
		c0.2,0.3,0,0.5-0.1,0.6c-0.5,0.6-0.8,1.4-0.9,2.2C243.1,183.1,244.8,185,247.2,185z M255.4,178.4c0.7,0.7,0.8,1.5,0.6,2.4
		c-0.1,0.7-0.4,1.3-0.7,1.9c-0.7,1.1-1.8,1.5-3,1c-0.2-0.1-0.5-0.2-0.7-0.3c-1.1-0.5-2.2-0.6-3.3-0.2c-0.5,0.1-0.9,0.2-1.4,0.3
		c-0.5,0.1-0.8-0.1-0.9-0.6c-0.5-1.9-0.5-3.3,1-4.5c1.2-1,2.1-2.1,2.6-3.6c0.6-1.6,1.6-2.7,3.3-3.1c0.5-0.1,0.6-0.5,0.3-0.9
		c-0.4-0.6-1-0.7-1.6-0.6c-1.4,0.2-2.4,0.9-3.1,2.1c-0.3,0.5-0.5,1-0.6,1.6c-0.4,1.2-1,2.2-1.9,3.1c-0.1,0.1-0.2,0.3-0.6,0.3
		c-0.7-1.6-1-3.3-0.3-5c0.2-0.6,0.7-1,1.2-1.3c0.4-0.3,0.9-0.5,1.4-0.7c0.9-0.3,1.8-0.8,2.5-1.5c0.5-0.4,1-0.7,1.6-0.9
		c1.4-0.4,2.4,0,3.2,1.1c0.6,0.9,0.9,1.8,0.8,2.9c-0.1,0.8-0.2,1.5-0.5,2.2c-0.2,0.5-0.4,1.1-0.5,1.6
		C254.5,176.7,254.6,177.6,255.4,178.4z M246.8,195.7c-1.5-0.6-3.1-0.9-4.7-0.8c-0.9,0-1.8,0-2.6-0.1c-0.7-0.1-1.3-0.4-1.7-0.9
		c-0.8-0.8-1.5-1.8-1.9-2.9c-0.3-0.8-0.6-1.6-0.9-2.4c-0.4-1-0.9-1.8-1.6-2.6c-0.3-0.4-0.7-0.8-1-1.2c-1.1-1.4-1.1-3.4,0.1-4.8
		c0.5-0.7,1.2-1.1,2-1.5c0.2,0.5,0,0.8,0,1.1c-0.1,0.5-0.2,1-0.3,1.5c-0.2,1.7,0.5,3.1,2,4c0.6,0.4,1.3,0.6,2,0.8
		c0.4,0.1,0.7,0.3,0.7,0.8c0,0.3,0.1,0.6,0.3,0.8c0.6,1.5,1.8,2.5,3.4,2.4c2.1-0.1,4.2,0.3,6.3,0.7c2.2,0.4,4.3-0.2,6.2-1.3
		c1-0.6,1.9-1.3,2.9-2c1.6-1.3,3.3-2.4,5.2-3.4c0.8-0.4,1.6-0.8,2.2-1.4c1.8-1.5,2.2-3.5,1.2-5.5c-0.6-1.3-1.5-2.3-2.8-3
		c-0.4-0.2-0.9-0.5-1.4-0.7c0.7-1,1-2,1.4-3.1c1.3,1.1,2.8,1.7,4,2.8c2.1,1.8,3.8,5.5,1.4,9.2c-1,1.5-2.3,2.8-3.6,4
		c-1.1,1-2.3,1.9-3.5,2.7c-2,1.3-3.7,2.9-5.2,4.7c-1.3,1.6-3,2.7-5.1,3c-1,0.2-2,0.1-3-0.2C248,196.1,247.4,195.9,246.8,195.7z
		 M264.6,169c-0.6-0.4-0.9-0.7-0.9-1.5c0-0.9-0.2-1.8-0.6-2.7c-0.8-1.9-2.4-3-4.5-3c-0.3,0-0.6,0-0.9,0.1c-0.9,0.1-1.7,0.1-2.5-0.1
		c-0.7-0.2-1.3-0.4-2-0.8c-1-0.5-2-1-3.1-1.4c-1.4-0.6-2.8-0.8-4.3-0.9c-2.3-0.1-4.2,0.8-5.7,2.5c-0.1,0.1-0.2,0.3-0.3,0.4
		c-0.3,0.4-0.6,0.8-0.9,1.2c-0.7,0.9-1.4,1.8-2.3,2.5c-0.2,0.1-0.3,0.3-0.6,0.3c0-0.1-0.1-0.2-0.1-0.3c-0.2-1.8-0.1-3.5,0.4-5.2
		c0.1-0.5,0.3-0.9,0.5-1.4c0.7-1.6,1.8-2.7,3.1-3.7c0.8-0.6,1.6-0.8,2.6-0.8c0.7,0,1.5,0.1,2.2,0.2c1.5,0.2,2.9,0.2,4.3-0.1
		c1.6-0.3,3.3-0.3,4.9,0.1c1.4,0.3,2.8,0.6,4.2,1c2.3,0.6,4.2,1.9,5.9,3.4c0.3,0.2,0.6,0.5,0.8,0.8c0.4,0.5,0.9,0.9,1.4,1.3
		c1.1,0.9,2.2,1.7,3.5,2.2c1.6,0.7,2.5,2,2.7,3.7c0.3,2.1,0.3,4.2-0.7,6.1c-0.2,0.4-0.5,0.9-1,1.3
		C269.3,171.7,266.8,170.5,264.6,169z M245.7,146.1c-1.7,1.1-2.8,2.7-3.3,4.6c-0.1,0.5-0.3,0.9-0.3,1.4c0,0.4-0.2,0.5-0.6,0.6
		c-3.5,0.4-5.7,2.4-7,5.5c-0.2,0.4-0.3,0.8-0.4,1.2c0,0,0,0,0,0c-0.1,0.5-0.3,0.6-0.8,0.5c-2.4-0.4-4.5,0.8-5.6,3
		c-0.4,1-0.7,2-0.9,3c-0.6,2.9-1.5,5.6-2.9,8.2c-0.2,0.3-0.3,0.6-0.6,0.9c-0.3-0.2-0.2-0.4-0.2-0.6c-0.3-2.7-1.7-4.9-3.6-6.7
		c-0.5-0.5-0.7-1-0.7-1.7c0.1-1.1,0.1-2.1,0.4-3.2c0.3-1.6,1-2.9,1.9-3.9c1.1-1.2,2.5-2.1,4.3-2.7c0.7-0.2,1.5-0.4,2.2-0.6
		c1.7-0.4,3-1.2,4.2-2.4c1.1-1.1,2.1-2.3,3-3.5c0.4-0.5,0.9-1.1,1.3-1.6c2-2.1,4.4-3.2,7.3-3.3c0.8,0,1.6,0,2.2,0.7
		C246.2,145.7,246.2,145.8,245.7,146.1z M230.1,130.6c0.7,0.4,1.3,0.9,1.9,1.6c1.8,2,2.1,4.2,1.4,6.7c-0.1,0.5-0.4,0.9-0.7,1.2
		c-0.4,0.4-0.7,0.5-1.2,0.2c-0.9-0.5-1.9-1-3-1.2c-0.9-0.2-1.8-0.2-2.7,0.1c-0.5,0.2-0.7,0-0.8-0.5c-0.1-0.5-0.1-1-0.2-1.5
		c-0.1-1.2-0.1-2.5-0.5-3.7c-0.3-1-0.8-1.9-1.4-2.8c-1.3-1.6-2.9-2.4-4.9-2.5c-1.8-0.1-3.5-0.1-5.3-0.3c-1.4-0.1-2.6,0.6-3.7,1.4
		c-0.6,0.4-1.1,0.7-1.8,0.8c-1.3,0.1-2.3,0.8-3,1.9c-0.5,0.7-0.8,1.6-1.5,2.3c-2.3-1.6-3.8-1.5-6.2,0.2c-0.2-0.5-0.3-0.9-0.2-1.4
		c0.7-1.9,1.1-3.8,1.8-5.7c0.5-1.4,1.4-2.5,2.6-3.4c1.3-1,2.7-1.2,4.3-0.9c0.9,0.2,1.7,0.4,2.5,0.8c2,0.7,4,0.8,6,0.2
		c1.5-0.4,3-0.9,4.6-1.3c1.5-0.4,3-0.7,4.6-0.3c1.5,0.3,2.6,1.1,3.4,2.4c0.4,0.6,0.7,1.2,0.9,1.9
		C227.6,128.3,228.6,129.6,230.1,130.6z M195.1,132.1c-0.5,1.2-0.3,2.4,0.3,3.6c0.2,0.5,0.2,0.9,0.1,1.4c-0.2,0.6-0.2,1.3-0.3,2
		c-0.1,1-0.5,1.9-1.3,2.6c-0.2,0.2-0.4,0.4-0.6,0.6c-1.3,1.3-2.2,2.8-2.3,4.6c-0.2,0.1-0.3,0-0.4-0.1c-1.2-1-2.6-1.6-4.1-2
		c-0.5-0.1-0.6-0.3-0.6-0.8c0.1-1,0.3-1.9,0.7-2.7c0.5-1.1,1.2-2.1,1.8-3.1c1.8-2.6,3.2-5.3,4-8.3c0.3-1.1,0.8-2.2,1.4-3.2
		c0.8-1.2,1.9-1.8,3.5-1.6C196.2,127.3,196,129.8,195.1,132.1z M190.7,150.3c1.6,1.5,3.1,3.1,4,5.1c0.1,0.2,0.2,0.4,0.3,0.7
		c-0.4,0.1-0.5-0.1-0.7-0.3c-1.8-1.2-3.8-1.5-6-1.1c-1.9,0.4-3.7,1.2-5.4,2.1c-1.5,0.8-3,1.4-4.7,1.8c-1.6,0.3-2.8,1.1-3.8,2.4
		c-0.3,0.4-0.6,0.5-1,0.6c0,0-0.1,0-0.1,0c-1,0.2-2.1,0.3-3.1,0.6c-0.9,0.2-1.7,0.5-2.5,0.9c-0.3,0.2-0.5,0.1-0.6-0.3
		c-0.2-0.6-0.3-1.2-0.4-1.8c-0.1-0.9-0.1-1.7,0-2.6c0-0.4,0.3-0.7,0.7-0.8c0.3-0.1,0.7-0.2,1-0.3c2.2-0.4,3.9-1.6,5.3-3.3
		c0.9-1,1.7-2.1,2.5-3.1c1.1-1.3,2.4-2.3,3.8-3.3c1.5-1.1,3.2-1.3,5-0.8C187.1,147.4,189,148.7,190.7,150.3z M178.9,146.4
		c-2.1,1.4-3.8,3.2-5.4,5.2c-0.7,0.9-1.6,1.4-2.7,1.7c-1.8,0.4-3.5,0.7-5.3,0.9c-1.4,0.2-2.7,0.4-3.9,0.9c-0.5,0.2-0.7,0-0.9-0.3
		c-1-1.7-1.8-3.5-2.3-5.4c-0.1-0.4-0.1-0.6,0.4-0.6c2.5-0.3,5.1-0.7,7.6-0.8c0.7,0,1.4,0,2.2,0.1c1.4,0.2,2.8,0,4.2-0.4
		c2.1-0.6,4.3-0.9,6.5-1.7C179.2,146.3,179.1,146.3,178.9,146.4z M176,145.2c-1.4,0.2-2.7,0.5-4.1,0.7c-1.1,0.2-2.2,0.3-3.4,0.4
		c-3.3,0.2-6.6,0.5-9.9,1.2c-0.8,0.2-0.8,0.2-1-0.6c-0.6-2.4-0.9-4.8-1-7.5c2.8,1.1,5.6,1.2,8.4,1.5c1.5,0.2,3,0.5,4.4,0.9
		c1.1,0.3,2.2,0.5,3.3,0.4c0.6,0,1.1,0.1,1.6,0.5c1.1,0.7,2.1,1.3,3.3,2C177.1,145.2,176.5,145.2,176,145.2z M171.1,140.9
		c-1.3-0.2-2.5-0.5-3.8-0.7c-2.6-0.6-5.1-1.1-7.7-1.7c-0.8-0.2-1.7-0.2-2.5-0.2c-0.3,0-0.6-0.1-0.6-0.5c-0.1-2.6-0.3-5.2-0.4-8
		c0.6,0.5,1.1,0.9,1.5,1.3c1.4,1.4,2.9,2.5,4.7,3.3c1.4,0.7,2.7,1.5,4.1,2.1c0.3,0.1,0.6,0.3,0.8,0.6c1.2,1.2,2.4,2.3,3.8,3.3
		c0.1,0.1,0.2,0.1,0.3,0.2C171.2,140.7,171.2,140.8,171.1,140.9z M156.5,151c0.7,2,1.7,3.8,2.9,5.7c-1.2,0.2-2.3,0.5-3.3,1.3
		c-0.9-3.9-0.5-7.7-1.4-11.5c0.5,0.3,0.6,0.7,0.7,1.1C155.8,148.7,156.1,149.9,156.5,151z M160,158.8c1.4,0,2.8,0.4,4.1,0.7
		c0.4,0.1,0.5,0.3,0.5,0.7c0,0.2,0,0.4,0,0.6c0,1.1,0.2,2.1,0.7,3.1c0.2,0.4-0.1,0.6-0.4,0.7c-1,0.7-1.8,1.6-2.3,2.7
		c-0.8,1.7-1,3.4-0.6,5.3c0.1,0.6,0.3,1.2,0.5,1.7c1.1,2.4,1.6,5,2.2,7.5c0.2,1,0.5,2,0.8,3c0.8,2.5,2.4,4.4,4.8,5.6
		c1.2,0.6,2.3,1.2,3.5,1.8c0.3,0.2,0.7,0.4,1,0.8c-0.6,0.2-1.1,0.2-1.6,0.2c-1-0.1-2-0.4-2.9-0.9c-2.5-1.3-5.3-2.1-8-2.8
		c-4.3-1-6.9-3.8-7.9-8c-0.6-2.5-0.5-4.9,0.4-7.4c1.1-2.9,1.5-5.9,0.8-8.9c-0.2-0.7-0.2-1.5-0.2-2.3c0-0.8,0.3-1.6,0.6-2.2
		C157,159.5,158.3,158.7,160,158.8z M157.7,190.4c0.5,0.2,0.9,0.4,1.4,0.6c-0.2,0.6-0.7,0.9-1.1,1.5
		C157.6,191.9,157.6,191.2,157.7,190.4z M153.7,194c0-0.2,0.1-0.4,0.2-0.6c0.6-1,1.3-1.9,2.2-2.8c0.3,0.7,0.4,1.4,0.4,2
		c0,0.9-0.1,1.8-0.4,2.7c-0.1,0.2-0.2,0.5-0.4,0.7c-0.7,1.1-1.3,2.3-2,3.5c-0.1-1.6-0.2-3.2,0-4.8
		C153.6,194.5,153.6,194.3,153.7,194z M153.4,206.8c0.6-2.1,1.3-4.2,2.2-6.1c0.1-0.3,0.3-0.7,0.6-0.6c2.7,0.4,5.2,0.1,7.7,0
		c1.1-0.1,2.1,0,3.2,0.1c0.5,0,0.9,0.2,1,0.7c0,0.2,0.1,0.3,0.2,0.4c0.5,1.2,0.5,1.1-0.5,2.1c-0.5,0.5-1.1,0.8-1.8,0.9
		c-1,0.1-2.1,0.3-3.1,0.5c-1.4,0.2-2.7,0.8-3.9,1.5c-1.3,0.7-2.6,1.3-4,1.7c-0.2,0-0.4,0.1-0.6,0.1C153.1,208.1,153,208,153.4,206.8
		z M167.1,198c0,0.2,0.1,0.3,0,0.6c-1.8-0.1-3.5,0.1-5.2,0.1c-1.7,0-3.4,0-5.1,0c-0.2-0.2-0.1-0.4,0-0.5c0.4-0.8,0.9-1.6,1.3-2.4
		c0.7-1.2,1.5-2.4,2.4-3.5c0.4-0.5,0.7-0.6,1.3-0.5c1.2,0.3,2.3,0.6,3.5,0.8c0.6,0.1,0.9,0.4,0.9,1
		C166.4,195.1,166.7,196.5,167.1,198C167,197.9,167,198,167.1,198z M289.3,160.9c-0.4,0-0.8-0.1-1.1-0.1c-0.9-0.2-1.9-0.2-2.8-0.2
		c-0.5,0-0.9-0.2-1.3-0.5c-1-1-2-1.9-2.8-3c-0.5-0.7-1-1.2-1.5-1.9c2-0.2,3.8-0.2,5.7-0.2c2.4-0.1,4.2,1,6,2.5
		c0.4,0.4,0.9,0.7,1.3,1.1c0.7,0.6,1.5,1,2.5,1.2c0.7,0.2,1.4,0.3,2.2,0.7c-0.8,0.4-1.6,0.5-2.3,0.6c-0.5,0.1-1.1,0.1-1.6,0.2
		C292,161.1,290.7,161.1,289.3,160.9z M303.5,156.2c-1.1,1-2.2,2-3.4,2.9c-0.6,0.4-1.2,0.5-1.9,0.4c-1.8-0.5-3.5-1.1-4.8-2.5
		c-1.1-1.1-2.4-1.9-3.8-2.6c-0.1-0.1-0.3-0.2-0.4-0.3c2.1-0.4,11.7,0.6,14.7,1.6C303.9,156,303.7,156.1,303.5,156.2z M307,152.6
		c-0.6,0.6-1.1,1.2-1.7,1.8c-0.2,0.2-0.4,0.2-0.6,0.1c-0.6-0.2-1.2-0.4-1.8-0.5C304.4,153.4,305.7,153,307,152.6z M300.3,150.3
		c0.2-0.2,0.5-0.4,0.8-0.2c1,0.3,2,0.6,3.1,0.7c-1,1.2-3.9,2.3-6,2.2C298.9,151.8,299.5,150.9,300.3,150.3z M291.8,145
		c0.5,0.3,0.9,0.6,1.4,1c1.8,1.3,3.6,2.4,5.6,3.3c0.1,0.1,0.3,0.1,0.4,0.2c-0.7,0.8-1.2,1.7-1.9,2.4c-0.8,0.8-1.8,1.2-3,1
		c-2.1-0.3-4.2-0.4-6.3-0.5c-0.3,0-0.6,0-0.9,0c-0.1-0.3,0.1-0.5,0.2-0.6c0.4-0.8,0.8-1.6,1.1-2.5c0.5-1.7,1.7-2.9,2.8-4.1
		C291.4,144.8,291.6,144.8,291.8,145z M283.9,142.5c1-1.2,1-1.2,2.5-0.6c1.4,0.5,3.4,1.7,4.2,2.4c-0.3,0.4-0.6,0.7-1,1
		c-1.4,1-2.4,2.4-3.1,4c-0.3,0.7-0.7,1.4-1,2.1c-0.3,0.6-0.7,1-1.5,1c-1.2,0-2.3,0.2-3.8,0.3c1.1-1.2,1-2.6,1.1-3.9
		c0.2-2.3,1.2-4.2,2.5-6C283.8,142.6,283.8,142.6,283.9,142.5z M278.5,141.7c0.1-0.1,0.3-0.2,0.5-0.2c1.4-0.3,2.8-0.4,4.4-0.2
		c-0.1,0.4-0.3,0.6-0.5,0.8c-1.2,1.4-2,2.9-2.6,4.6c-0.3,0.9-0.5,1.8-0.4,2.7c0.1,1.3-0.4,2.3-1.4,3.1c-0.6,0.4-1.1,1-1.8,1.2
		c-0.3,0.1-0.6,0.2-0.8-0.2c-0.6-1-1.3-2-2-2.8c-0.2-0.3-0.3-0.5-0.1-0.8c0.7-1.3,1.2-2.6,1.7-4C275.9,144,277.2,142.8,278.5,141.7z
		 M274.6,143.6c0,0,0.1,0.1,0.1,0.1c-0.5,0.8-1.1,1.5-1.4,2.4c-0.3,0.9-0.5,1.8-1,2.7c-0.6-0.4-1.1-1-1.6-1.4
		c-0.2-0.1-0.2-0.3,0-0.5C272,145.8,273.3,144.7,274.6,143.6z M269.8,107.5c0.6-1,1.2-2,1.9-2.9c0.1,0,0.1,0,0.2,0.1
		c-0.2,2.1-0.4,4.2-0.6,6.3c0,0.3-0.1,0.5-0.2,0.7c-1.4,2.2-2.9,4.3-4.5,6.3c-0.1-0.2-0.1-0.3,0-0.4c1-2.7,1.8-5.5,2.5-8.2
		C269.2,108.7,269.4,108.1,269.8,107.5z M258.7,117.3c-0.1-0.4,0-0.6,0.4-0.9c2.7-1.7,5.3-3.5,7.6-5.8c0.1,0,0.1,0.1,0.2,0.1
		c-0.5,1.5-1,2.9-1.5,4.4c-0.7,1.8-1.4,3.6-2.2,5.4c-0.1,0.2-0.2,0.4-0.3,0.5c-1.1,1.6-1.9,3.4-2.5,5.3c-0.7,1.9-1.8,3.5-3,5.1
		c-0.3-0.1-0.2-0.4-0.2-0.6c0.1-1.6,0.3-3.3,0.8-4.9C258.8,123.1,259.1,120.2,258.7,117.3z M253.6,119.3c1.2-0.6,2.4-1.2,3.7-1.8
		c0,2.6-0.1,5-0.6,7.3c-0.6,2.3-0.9,4.6-1.3,7c-0.2,1.3-0.6,2.4-1.5,3.4c-0.3-0.1-0.2-0.3-0.2-0.5c0-0.5,0-1.1-0.2-1.6
		c-0.6-1.6-0.6-3.3-0.6-5.1c0-2.4-0.1-4.9-0.2-7.3C252.7,119.6,252.6,119.9,253.6,119.3z M255.8,141.4c4.1,1,8.2,1.3,12.4,1.2
		c0.1,0,0.3,0,0.4,0c0.1,0,0.1,0.1,0.2,0.1c-0.2,0.8-0.6,1.5-1,2.2c-0.2,0.3-0.4,0.2-0.6,0.1c-2.3-1-4.6-1.2-7.1-1
		c-1,0.1-2,0.3-3,0.5c-1.2,0.3-2.4,0.4-3.6,0.3c-1.1-0.1-2.1-0.2-3.2-0.1c-0.4,0-0.5-0.1-0.4-0.5c0-0.3,0.2-0.4,0.4-0.6
		c0.5-0.4,1.1-0.8,1.6-1.2C253,141.3,254.3,141,255.8,141.4z M246.8,123c1.4-0.9,2.9-1.7,4.6-2.6c0,0.9,0.1,1.5,0.1,2.2
		c0,4.1,0,8.1,0.1,12.2c0,2-0.7,3.7-1.8,5.4c-0.1-0.1-0.2-0.1-0.2-0.1c-0.6-2.7-1.5-5.2-2-7.9c-0.2-1.1-0.3-2.3-0.3-3.4
		c-0.1-1.7-0.2-3.5-0.7-5.1C246.6,123.5,246.5,123.2,246.8,123z M245.6,125.8c0.4,1.4,0.4,2.9,0.4,4.4c0.1,2.7,0.6,5.3,1.3,7.8
		c0.5,1.8,0.9,3.6,0.8,5.5c0,0.4-0.1,0.8-0.1,1.2c-0.1,0.3-0.3,0.3-0.5,0.1c-1.4-1.8-3.3-2-5.4-1.9c-1.3,0.1-1.2,0.1-1.4-1.1
		c-0.1-0.8-0.2-1.7-0.4-2.5c-0.3-1.3-0.2-2.5,0-3.8c0.1-0.8,0.1-1.5,0.1-2.3c-0.1-1.3-0.6-2.5-1.5-3.4c-0.5-0.5-0.8-1.1-0.9-1.8
		c-0.2-1.4-0.4-2.8-0.6-4.2c-0.2-1.5-0.7-3-1.5-4.4c-0.7-1-1.5-1.9-2.6-2.7C240,116.5,244.4,121.1,245.6,125.8z M198,116.9
		c0.9-0.3,1.9-0.4,2.9-0.6c1.7-0.4,3.3-1,4.9-1.8c1.8-0.9,3.6-1.6,5.6-1.8c2.4-0.2,4.8,0,7.1,0.8c0.9,0.3,1.7,0.8,2.4,1.4
		c1.4,1.2,3,1.7,4.7,2c1.4,0.2,2.8,0.4,4.1,1c3.5,1.5,5.6,4.2,6.3,7.9c0.1,0.7,0.2,1.4,0.3,2.1c0,0.1,0,0.1-0.1,0.2
		c-0.1,0-0.1,0-0.2,0c-2.1-1.2-4.5-1.8-6.8-2.1c-0.9-0.1-1.5-0.5-1.9-1.4c-1-2.1-2.7-3.5-5-4c-1.3-0.3-2.5-0.1-3.7,0.2
		c-2,0.5-4,1.1-5.9,1.7c-1.6,0.4-3.2,0.4-4.9,0c-0.9-0.2-1.7-0.4-2.6-0.6c-2-0.5-3.8,0-5.4,1.2c-0.5,0.4-0.9,0.6-1.5,0.4
		c-0.8-0.2-1.7,0-2.5,0.2c-1,0.2-1.7,0.8-2.3,1.6c-0.6,0.7-1,1.5-1.5,2.5c-0.5-1.4-0.6-2.7-0.3-3.9
		C192.5,119.9,194.6,117.8,198,116.9z M184.5,132c0.4-1.7,0.6-3.4,0.7-5.1c0-1.2,0.1-2.4,0.4-3.6c0.3-1.6,1.2-2.8,2.5-3.6
		c1.4-0.8,2.8-1.4,4.5-1.7c-0.1,0.4-0.3,0.6-0.5,0.7c-1.8,2.3-2.3,4.8-1.7,7.6c0.2,1,0.4,2,0.7,2.9c0.1,0.3,0,0.6-0.1,0.8
		c-0.5,1.6-1.3,3.2-2.3,4.5c-0.9,1.2-1.8,2.5-2.5,3.8c-1,1.7-1.6,3.4-1.6,5.4c0,0.5-0.2,0.8-0.7,0.7c-0.2,0-0.3,0-0.5,0
		c-1.3,0.2-1.3,0.2-1.4-1.1c-0.2-2.2,0.1-4.3,0.8-6.4C183.4,135.3,184.1,133.7,184.5,132z M179.6,125.6c1.2,0.8,2.4,1.7,3.6,2.7
		c0.5,0.4,0.6,0.8,0.5,1.4c-0.2,1.1-0.5,2.2-0.9,3.3c-0.8,2-1.7,3.9-2,6.1c-0.4-0.4-0.5-0.9-0.5-1.3c-0.5-2.7-0.8-5.4-0.9-8.1
		c-0.1-1.4,0-2.8-0.4-4.2C179.3,125.3,179.4,125.5,179.6,125.6z M172.5,121.6c1.4,0.7,2.8,1.5,4.2,2.2c0.4,0.2,0.7,0.5,0.7,1
		c0,2.5,0.7,4.9,1,7.3c0.3,2.8,0.6,5.5,1,8.3c0.2,1.1,0.3,2.1,0.9,3.1c0.1,0.1,0.1,0.2,0,0.4c-1.2-0.6-2.4-1.3-3.4-2.2
		c-0.5-0.4-0.8-1-1-1.6c-0.4-1.3-0.7-2.6-0.9-4c-0.3-1.7-0.8-3.4-1.4-5c-0.4-1-0.7-2-1-3.1c-0.5-2.1-0.9-4.1-1.4-6.2
		c-0.1-0.3-0.1-0.6-0.2-1C171.6,121.2,172.1,121.4,172.5,121.6z M163.2,116.7c0.3,0,0.5,0.2,0.8,0.4c1.5,0.9,3.1,1.8,4.7,2.6
		c0.6,0.3,0.9,0.6,1,1.3c0.4,2,0.8,3.9,1.2,5.8c0.3,1.7,0.7,3.4,1.2,5.1c0.6,1.9,0.7,3.8,1.1,5.8c0.2,0.8,0.4,1.5,0.6,2.3
		c-1.9-1.2-3.7-2.4-4.7-4.6c-1-2-1.7-4.2-2.2-6.4c-0.5-2.8-1.6-5.5-2.5-8.1c-0.4-1.2-0.8-2.4-1.2-3.6
		C163.2,117,163.1,116.9,163.2,116.7z M154.5,110.4c1.9,1.6,3.8,3,5.9,4.3c0.7,0.4,1.1,1,1.3,1.7c1.2,4.3,2.7,8.6,3.4,13
		c0.2,1,0.5,2,0.8,3.1c-0.4-0.2-0.6-0.5-0.8-0.8c-2.1-2.8-3.7-5.8-5.1-8.9c-1.7-3.6-3.3-7.3-5.1-10.8c-0.3-0.6-0.7-1.3-1-1.9
		C154.2,110,154.3,110.2,154.5,110.4z M153.5,113.5c0.4,0.2,0.5,0.5,0.6,0.8c1.6,3.1,3,6.3,4.4,9.4c1.5,3.3,3.2,6.5,5.3,9.4
		c0.1,0.1,0.1,0.2,0.2,0.4c-1.7-0.6-3.1-1.3-4.3-2.3c-1.2-1.1-2.3-2.2-3.5-3.2c-0.4-0.3-0.3-0.7-0.4-1.1c-0.3-3.2-0.7-6.3-1.4-9.5
		C154.1,116.1,153.8,114.8,153.5,113.5z M150.5,138.8c0.9,1.2,1.8,2.3,2.5,3.6c0.2,0.4,0.4,0.7,0.4,1.2c0.1,2.6,0.4,5.2,0.8,7.7
		c0.2,1.3,0.1,2.6,0.2,3.9c0,0.8,0.1,1.5,0.1,2.3c-0.1,0-0.2,0-0.2,0c-1.9-2.6-3.4-5.4-3.6-8.7c-0.1-1.2-0.1-2.5-0.1-3.7
		c0-2.2,0.2-4.5-0.6-6.7C150.2,138.4,150.4,138.6,150.5,138.8z M147,135.8c0.9,0.4,1.4,0.9,1.5,1.9c0.1,1,0.3,1.9,0.3,2.9
		c0,2.2-0.1,4.3,0,6.5C146.5,143.6,146.7,139.8,147,135.8z M142.7,145.2c0.2-2.1,0.6-4.2,1-6.3c0.2-1.3,0.5-2.5,0.7-3.8
		c0.1,0,0.1,0,0.2,0c0.2,1.6,0.5,3.3,0.7,4.9c0.1,1,0.2,2.1,0.3,3.1c0.2,2,0.9,3.8,1.7,5.6c0.1,0.2,0.2,0.5,0.3,0.7
		c0,0.1,0,0.1,0,0.3c-0.6-0.3-1.1-0.7-1.5-1.1c-1-0.9-1.9-1.8-3-2.6C142.7,145.9,142.7,145.6,142.7,145.2z M142.6,148.6
		c0-0.2,0-0.4,0-0.6c0-0.1,0-0.1,0.1-0.3c0.9,0.5,1.4,1.2,2.1,1.9c0.8,0.9,1.8,1.6,2.8,2.2c0.6,0.3,1.3,0.6,1.7,1.2
		c0.9,1.5,1.9,3.1,2.6,4.7c-0.3,0.2-0.5,0-0.8-0.1c-1.4-0.5-2.9-0.6-4.4-0.7c-0.3,0-0.7-0.1-1-0.1c-1.8-0.4-1.8-0.4-2.3-2.2
		C142.9,152.6,142.6,150.6,142.6,148.6z M144.7,157.9c2.1,0.4,4,0.5,5.8,1.2c1,0.4,1.9,0.9,2.7,1.6c0,0,0.1,0.1,0.1,0.1
		c0.3,0.2,0.3,0.5,0.2,0.9c-0.4,0.9-0.5,1.8-0.5,2.8c0,0.5-0.1,0.6-0.6,0.6c-1.1-0.2-2.2-0.3-3.2-0.6c-0.3-0.1-0.6-0.2-0.9-0.5
		c-0.7-0.9-1.4-1.9-2-3C145.7,159.9,145.2,159,144.7,157.9z M145.8,190.5c0.5-0.5,1-0.7,1.6-0.4c0.3,0.1,0.6,0.2,0.9,0.3
		c1.4,0.6,2.9,1.2,4.5,0.9c0,0.7-0.3,1.2-0.6,1.7c-0.2,0.5-0.6,1-1,1.3c-0.6,0.6-1.4,1-2.2,1.3c-1.4,0.5-2.8,1-4.3,1.1
		c-1,0.1-1.9,0.4-2.7,0.8c-0.1-0.1-0.2-0.1-0.2-0.2c0.5-1.6,1.2-3,2.1-4.4C144.4,192,145.1,191.2,145.8,190.5z M141.1,210.9
		c0.5-0.7,1.1-1.3,1.8-1.8c0.7-0.6,1.5-1.1,2.3-1.8c-0.1,1.1-0.3,1.9-0.7,2.6c-0.2,0.4-0.4,0.8-0.7,1.2c-1.1,1.5-2.2,3-3,4.7
		C140.1,214.1,139.9,212.4,141.1,210.9z M141.7,220.6c-0.3-0.8-0.4-1.5-0.5-2.1c0-0.1,0-0.3,0-0.4c0.5-1.2,1-2.4,1.8-3.4
		C142.6,216.6,142.1,218.5,141.7,220.6z M146.4,219.4c-1,1.1-2.1,2.2-3.4,3c0.1-2.6,2.5-10.1,3.5-11.2c0.2,2.3,0.5,4.6,0.4,6.9
		C146.8,218.6,146.7,219,146.4,219.4z M147.5,201.5c-0.8,1.8-2.1,3.1-3.5,4.4c-0.7,0.7-1.5,1.3-2.3,1.9c-0.6,0.5-1.2,1-1.9,1.7
		c-0.1-1.4,0-2.6,0.1-3.7c0.1-1.8,0.5-3.6,0.9-5.4c0.1-0.4,0.3-0.7,0.6-1c1.2-1,2.6-1.6,4.2-1.7c1.3-0.1,2.6-0.4,3.8-0.8
		c0.2,0.1,0.1,0.3,0.1,0.4C149,198.6,148.2,200,147.5,201.5z M148.2,216.7c-0.7-6.8,0.7-13,3.4-19c0.2,1.2,0,2.3,0.1,3.4
		c0.1,2-0.3,3.8-1,5.6c-1,2.8-1.5,5.7-2,8.6C148.7,215.8,148.6,216.2,148.2,216.7z M148.9,227.2c0.9-2.4,1.5-4.9,1.9-7.4
		c0.2-1.3,0.3-1.4,1.6-1.6c1.3-0.3,2.6-0.3,4-0.3c-1.6,4.1-4.5,7-7.5,9.9C148.7,227.5,148.9,227.4,148.9,227.2z M156.8,223
		c-0.2,1.5-1,2.5-2.3,3.3c-1.6,1-3,2.2-4.6,3.4c-0.3,0.2-0.5,0.5-0.9,0.5c2.4-3.3,5.7-5.9,8.2-9.3
		C157.3,221.8,156.9,222.4,156.8,223z M157,215.9c-0.8,0.3-1.6,0.4-2.5,0.6c-1,0.1-2,0.2-3.1,0.6c0-1,0.2-1.9,0.4-2.8
		c0.2-1.4,0.5-2.7,0.8-4.1c0.1-0.5,0.2-0.8,0.8-0.7c0.6,0.1,1.1-0.1,1.7-0.3c1.6-0.5,3.1-0.9,4.7-1.5c1.7-0.7,3.6-0.8,5.3-1.3
		c0.1,0.4-0.2,0.5-0.3,0.6c-1.4,1.6-2.8,3.1-4.3,4.7c-0.9,1-1.8,2.2-2.4,3.4C157.8,215.5,157.5,215.7,157,215.9z M164.2,217.8
		c0,0.9-0.1,1.8-0.2,2.6c0,0.4-0.2,0.6-0.6,0.8c-1.7,0.9-3.3,1.7-4.9,2.6c-0.1,0.1-0.2,0.1-0.5,0c0.3-0.6,0.5-1.2,0.8-1.8
		c0.6-1.5,1.1-3,1.3-4.6c0.3-1.7,1.1-3.2,1.9-4.7c0.5-1,1.2-1.8,2-2.6c1-1,1.9-2.1,3-3.2c0.1,0.5-0.1,0.7-0.2,1
		c-0.4,1-0.8,1.9-1.3,2.9C164.5,213,164.2,215.4,164.2,217.8z M172.1,206.8c-0.1,1-0.3,2-0.4,3c-0.2,1.7-0.2,3.4-0.2,5.1
		c0,2,0,2-1.8,3c-1.2,0.7-2.5,1.3-3.7,2c0,0-0.1,0-0.2,0c-0.2-0.3,0-0.5,0-0.8c0.5-2.1,0.7-4.2,1.1-6.3c0.2-1.2,0.5-2.4,1-3.4
		c0.7-1.6,1.3-3.3,2-5c0.7,0.6,1.3,1.2,1.9,1.7C172.2,206.1,172.1,206.5,172.1,206.8z M173.2,215.8c-0.1,0-0.2,0.1-0.3,0
		c0-0.6,0-1.3,0-2c0-2.2,0.6-4.2,1.3-6.3c0.1-0.3,0.2-0.5,0.6-0.4c0.7,0.1,1.4,0.2,2.1,0.2c1.2,0.1,2.5,0.2,3.7,0.4
		c1.4,0.3,1.4,0.3,0.6,1.4c-1.5,2-3.4,3.5-5.3,5C174.9,214.7,174.1,215.3,173.2,215.8z M187.8,232c-0.9,0.7-1.7,1.4-2.6,2.1
		c-0.4,0.3-0.8,0.4-1.2,0.2c-0.3-0.1-0.5-0.2-0.8-0.2c-1.1-0.3-2,0-2.7,0.9c-0.3,0.4-0.6,0.8-0.9,1.2c-0.2,0.4-0.5,0.7-0.8,1
		c-0.7,0.7-1,0.6-1.3-0.3c-0.5-1.4-0.5-2.9-0.4-4.4c0.1-0.6,0.2-1.1,0.3-1.7c0.4-2,0.2-4-0.3-6c-0.3-0.9-0.5-1.9-0.7-2.9
		c-0.1-0.7-0.2-1.4,0-2.2c0.8,0.7,1.5,1.5,2,2.4c0.5,0.8,1,1.7,1.6,2.5c0.8,1.2,1.9,2,3.3,2.4c1,0.3,1.9,0.6,2.8,1.1
		c0.9,0.5,1.7,1.2,2.1,2.2C188.6,231.1,188.5,231.5,187.8,232z M210.2,312.8c-0.4,3.9-0.9,7.8-1.7,11.6c-0.2,0.8-0.4,1.6-0.7,2.3
		c-0.1,0.2-0.2,0.5-0.5,0.5c-0.2,0-0.3-0.3-0.4-0.5c-0.3-0.6-0.6-1.3-0.8-1.9c-0.8-2.3-1.2-4.7-1.5-7.1c-0.3-2.1-0.4-4.3-0.5-6.4
		c0-0.8,0-1.5,0.1-2.3c0.2-1.3,0.8-1.9,2.1-2.1c0.4,0,0.8-0.1,1.1-0.1c0.8,0,1.3-0.4,1.6-1c0.2-0.3,0.3-0.7,0.5-1
		c0.2-0.3,0.3-0.7,0.5-1c0.1-0.2,0.2-0.5,0.5-0.5c0.4,0.1,0.3,0.4,0.4,0.7c0,0.6,0,1.3,0,1.9C210.7,308.3,210.5,310.6,210.2,312.8z
		 M226.1,324.3c-0.2,0.9-0.6,1.8-1.1,2.6c-0.4,0.6-0.6,0.6-0.9,0c-0.6-1.1-0.8-2.3-1-3.5c-1-5.6-1.7-11.2-2.1-17c0-0.5,0-1.2,0-1.9
		c0-0.3-0.1-0.8,0.3-0.9c0.5-0.1,0.6,0.4,0.7,0.7c0.2,0.4,0.4,0.9,0.6,1.3c0.4,1,1,1.6,2.2,1.5c0.3,0,0.6,0,0.9,0.1
		c1,0.2,1.6,0.7,1.8,1.7c0.1,0.4,0.2,0.9,0.2,1.3C227.9,314.9,227.4,319.6,226.1,324.3z M235.9,280.8c-0.4,0.2-0.8,0-1.1-0.5
		c-0.4-0.8-0.7-1.7-1-2.6c-0.4-1.1-0.7-2.2-1-3.4c-0.3-1.1-0.8-2.1-1.5-3.1c-1.8-2.5-3.7-4.9-5.8-7.1c-2.3-2.3-4.3-4.9-6.7-7.1
		c-0.4-0.4-0.8-1-1.2-1.5c-0.2,0.3-0.1,0.7-0.1,1c0,6.9,0.3,13.9,0.2,20.8c-0.1,7.4-0.2,14.8-0.1,22.2c0,0.3,0,0.7-0.1,1
		c-0.1,0.4-0.4,0.7-0.8,0.7c-0.4,0-0.7-0.2-0.8-0.7c-0.1-0.4-0.3-0.8-0.1-1.3c0-0.1,0-0.3,0-0.5c0-8.8-0.1-17.6-0.1-26.5
		c0-5.4-0.2-10.8-0.3-16.2c0-0.3,0-0.6-0.1-0.9c-0.4,0.1-0.5,0.4-0.6,0.6c-1.7,2.3-3.4,4.7-5.1,7c-1.1,1.5-1.9,3-2.5,4.8
		c-0.5,1.5-1.2,2.9-1.9,4.3c-1,1.9-1.9,3.9-2.6,5.9c-0.5,1.3-0.7,2.7-1,4.1c-0.1,0.3-0.1,0.6-0.2,0.9c-0.1,0.4-0.4,0.5-0.7,0.5
		c-0.4,0-0.6-0.3-0.6-0.7c0-1.1,0.1-2.2,0.3-3.3c0.3-1.8,0.9-3.5,1.6-5.1c1.3-2.8,2.6-5.6,3.7-8.5c0.7-1.9,1.9-3.5,3.1-5.1
		c2.2-3,4.2-6.1,5.9-9.5c0.2-0.5,0.3-1,0.3-1.6c-0.4-7.9-0.5-15.7-0.3-23.6c0.1-5.6,0.6-11.2,1.2-16.8c0.3-2.3,0.4-4.6,0.6-6.9
		c0-0.2,0.1-0.5,0.1-0.7c0.1-0.3,0.3-0.6,0.7-0.6c0.4,0,0.7,0.2,0.8,0.5c0.1,0.3,0.1,0.7,0.1,1c0.1,2.8,0,5.5-0.3,8.2
		c-0.4,4.7-0.6,9.3-0.7,14c-0.2,7.2-0.3,14.5-0.3,21.7c0,1.7,0.2,3.3,1,4.8c1.3,2.5,2.6,4.9,4.5,7c3.7,3.9,7,8.1,9.9,12.6
		c0.8,1.3,1.5,2.6,1.9,4c0.5,1.7,1,3.4,1.5,5.1C236.1,280.2,236.4,280.6,235.9,280.8z M255.7,221.2c-0.1,1.1-0.4,2.2-0.7,3.3
		c-0.7,2.4-0.7,4.8-0.3,7.2c0.3,1.5,0.3,3,0,4.5c-0.1,0.6-0.2,1.3-0.8,1.4c-0.6,0.1-0.9-0.6-1.3-1c-0.4-0.5-0.7-1.1-1.1-1.6
		c-0.9-1.1-1.7-1.4-3-0.9c-1,0.4-1.7,0.2-2.5-0.5c-0.5-0.6-1.2-1-1.9-1.5c-0.9-0.6-0.9-1.1-0.5-2c0.5-0.9,1.2-1.6,2.1-2
		c0.8-0.5,1.7-0.8,2.7-1c1.6-0.4,2.8-1.3,3.7-2.7c0.4-0.7,0.9-1.3,1.3-2c0.5-0.9,1.2-1.6,1.8-2.4c0.1-0.1,0.2-0.2,0.4-0.2
		C255.9,220.2,255.7,220.7,255.7,221.2z M257.5,212.3c-0.1,0.4-0.1,0.9-0.4,1.4c-0.5-0.5-1-1-1.4-1.5c-2.1-2.3-4.1-4.6-6.1-7.1
		c2-0.2,3.7-0.9,5.5-1.5c0.5-0.2,1-0.3,1.5-0.5c1.4-0.4,2.7-0.5,4.1-0.3c0.8,0.1,0.9,0.2,0.7,1c-0.4,1.5-0.9,3-1.8,4.4
		C258.7,209.5,257.9,210.8,257.5,212.3z M265.8,212.2c-1.1,2.4-1.4,4.8-0.4,7.3c0,0,0,0.1,0,0.3c-2.2-1.1-4.2-2.4-6.1-4
		c-0.5-0.4-0.6-0.9-0.5-1.4c0.2-1.2,0.4-2.3,0.9-3.4c0.4-0.8,0.8-1.6,1.3-2.3c0.9-1.4,1.6-2.9,2.1-4.5c0.3-0.8,0.3-0.8,1.1-0.7
		c0.1,0,0.3,0.1,0.4,0.1c1-0.1,1.5,0.5,1.9,1.3c0.8,1.4,0.7,2.8,0.3,4.3C266.6,210.3,266.2,211.3,265.8,212.2z M278,226.4
		c-0.2,0.1-0.4-0.1-0.6-0.2c-2.8-1.6-5.6-3.2-8.5-4.6c-0.6-0.3-0.9-0.6-1-1.2c-0.2-0.9-0.5-1.7-0.7-2.6c-0.3-1.7-0.3-3.4,0.3-5
		c0.5-1.6,1.3-3.2,1.6-4.9c1.5,2.2,2.9,4.4,4.1,6.7c0.8,1.5,1.4,3.1,1.9,4.7c0.7,2.3,1.6,4.5,2.7,6.6
		C277.9,226.1,278,226.2,278,226.4z M283.1,228.6c-0.3,0.1-0.4-0.1-0.5-0.3c-1.8-1.5-3.2-3.3-4.2-5.5c-0.5-1.1-1-2.1-1.3-3.2
		c-1.1-3.5-2.7-6.7-4.6-9.8c-0.2-0.3-0.4-0.5-0.4-1c1.6,1,3.1,1.9,4.5,2.9c1.5,1,2.6,2.4,3.5,3.9c0.3,0.5,0.6,1,0.9,1.6
		c0.5,1,0.8,2,0.9,3.1c0.2,2.6,0.6,5.1,1.2,7.6C283.1,228.1,283.2,228.4,283.1,228.6z"/>
</g>
</svg>
