<?xml version="1.0" encoding="utf-8"?>
<!-- Generator: Adobe Illustrator 21.0.0, SVG Export Plug-In . SVG Version: 6.00 Build 0)  -->
<svg version="1.1" id="Calque_1" xmlns="http://www.w3.org/2000/svg" xmlns:xlink="http://www.w3.org/1999/xlink" x="0px" y="0px"
	 viewBox="0 0 432 432" style="enable-background:new 0 0 432 432;" xml:space="preserve">
<style type="text/css">
	.st0{fill:#F7931E;}
	.st1{fill:#919191;}
	.st2{fill:#E6E6E6;}
	.st3{fill:#FFFFFF;}
	.st4{fill:#FFB3B3;}
	.st5{fill:#FFBF87;}
	.st6{fill:#65C8D0;}
	.st7{fill:#C7B299;}
	.st8{fill:#FF7D7D;}
	.st9{fill:#FF9191;}
	.st10{fill:#FCD821;}
	.st11{fill:#8CC63F;}
	.st12{fill:#603913;}
	.st13{fill:#009245;}
	.st14{fill:#ED1C24;}
	.st15{fill:#838BC5;}
	.st16{fill:#BA9BC9;}
	.st17{fill:#22B573;}
	.st18{fill:#39B54A;}
	.st19{fill:#8C6239;}
	.st20{fill:#F2B1B1;}
	.st21{fill:#603813;}
	.st22{fill:#C69C6D;}
	.st23{fill:#C46868;}
	.st24{fill:#A3DEE3;}
	.st25{fill:#FBB03B;}
</style>
<g>
	<path class="st8" d="M207.1,212.7c0.3-6.9-0.2-14.6-1.5-21c-0.8-3.7-2.1-7.8-4-11.6c-1.9-3.9-4.3-7.5-7.4-10.2
		c-0.6-0.5-1.5-0.5-1.9,0.3c-5.1,9.9-4.4,22.4,1.2,32.7c2.8,5,6.6,9.2,12,10.8C206.1,213.8,207,213.5,207.1,212.7z"/>
	<path class="st4" d="M214.4,209c0.5,0.6,1.6,0.8,2.1,0c4.2-6.4,7.5-14.6,9-22.1c1.6-8.6,0.7-20.2-4.6-27.6
		c-0.5-0.7-1.5-0.9-2.1-0.2c-7.9,9.3-11.2,21.3-10.5,33.6C208.8,198.8,210.3,204.5,214.4,209z"/>
	<path class="st9" d="M230.3,207.9c5.6-3.7,11.3-8.7,15.4-13.6c2.4-2.9,4.6-6.5,6.3-10.4c1.7-3.9,2.8-8,2.7-12
		c0-0.7-0.7-1.4-1.4-1.2c-10.4,2.8-18.9,10.9-23.4,21c-2.1,5.1-3.1,10.3-1.4,15.4C228.8,207.8,229.6,208.4,230.3,207.9z"/>
	<path class="st8" d="M258.4,217.5c0.3-0.4,0.3-1-0.1-1.2c-6.2-3.3-12.7-4.4-19.4-3.9c-3.3,0.3-6.5,1.1-9.3,3.2
		c-0.4,0.3-0.6,0.9-0.1,1.2c3.5,2.7,8.5,4.8,13.1,5.4C247.8,222.9,254.9,221.4,258.4,217.5z"/>
	<path class="st4" d="M242.7,249.7c0.6-8.9-3.6-17.7-10.6-23.7c-3.5-2.9-7.5-4.9-11.9-4.6c-0.6,0-1.2,0.5-1,1.2
		c1.7,5.3,4.3,10.8,7.1,15.2c1.7,2.5,3.9,5.2,6.5,7.5c2.6,2.3,5.5,4.3,8.6,5.3C241.9,250.7,242.7,250.4,242.7,249.7z"/>
	<path class="st4" d="M210.4,255.8c4.7-6.8,6.2-14.8,5.4-22.9c-0.5-4-1.7-7.8-4.5-10.7c-0.4-0.4-1.1-0.5-1.4,0
		c-2.7,4.4-4.8,10.1-5.4,15.2c-0.8,5.9,0.5,13.8,4.5,18.4C209.3,256.2,210.1,256.3,210.4,255.8z"/>
	<path class="st9" d="M202.8,223c0.2-0.4,0.2-1-0.3-1.2c-4.3-1.4-9.4-2-13.9-1.5c-1.3,0.1-2.6,0.4-4,0.8c-1.4,0.4-2.4,0.8-3.5,1.3
		c-1,0.4-2,0.8-2.9,1.2c-0.9,0.4-1.9,0.7-3.2,0.6c-0.5,0-1,0.3-0.9,0.8c0.2,1,0.7,2,1.5,2.8c0.8,0.8,1.7,1.4,2.7,1.9
		c2,0.9,4.1,1.2,6.1,1.2c0.5,0,1,0,1.4,0c0.4,0,0.9-0.1,1.3-0.1c0.9-0.1,1.7-0.2,2.6-0.4c1.7-0.3,3.4-0.8,5.1-1.4
		C197.9,227.7,200.9,226,202.8,223z"/>
	<path class="st4" d="M233.4,170.4c3.3-3.8,6.2-8.6,7.9-13.2c1.9-5.3,2.7-12.7,0.2-18c-0.2-0.5-0.9-0.8-1.3-0.4
		c-6.2,5-9.7,12.4-10.5,20.4c-0.3,3.9,0.1,7.8,2.4,11.1C232.4,170.6,233,170.9,233.4,170.4z"/>
	<path class="st4" d="M195.4,158.1c1.6,4.3,3.7,8.3,7.6,11c0.5,0.4,1.4,0.4,1.6-0.3c2.1-5.6,3.1-12.6,2.5-18.6
		c-0.7-7-4.3-15.7-10.3-19.5c-0.5-0.4-1.4-0.2-1.6,0.5C192.1,140,192.5,149.3,195.4,158.1z"/>
	<path class="st4" d="M246.7,204.1c-0.1,0.5,0.1,1.2,0.7,1.2c5.1,0.1,10.9-0.7,15.6-2.2c5.4-1.8,11.9-5.8,14.7-11.1
		c0.3-0.5,0.1-1.2-0.5-1.3c-7.9-2-16.3-0.1-23.2,4.4C250.7,197.4,247.9,200.2,246.7,204.1z"/>
	<path class="st4" d="M260.3,140.1c-6.1,2.3-10.7,7.2-13.4,13.2c-1.2,3-1.8,6.1-0.9,9.2c0.1,0.4,0.6,0.8,1,0.5
		c3.5-2.1,7-5.2,9.4-8.3c2.8-3.6,5.3-9.2,4.8-14C261.2,140.3,260.8,139.9,260.3,140.1z"/>
	<path class="st4" d="M259.8,182.8c-0.1,0.4,0,1,0.6,1.1c4.3,0.4,9.3-0.2,13.4-1.6c4.7-1.6,10.1-5.4,12.1-10.2c0.2-0.4,0-1-0.5-1.1
		c-6.7-1-13.4,0.8-19.2,4.5C263.4,177.4,261,179.6,259.8,182.8z"/>
	<path class="st4" d="M271.5,251.9c0.5-0.1,0.9-0.6,0.7-1.2c-3.1-7.2-8.3-12.5-14.7-16.6c-3.2-1.9-6.6-3.3-10.5-3.2
		c-0.5,0-1.1,0.5-0.9,1c1.4,4.7,4.5,9.8,8.1,13.4C258.5,249.5,265.7,253,271.5,251.9z"/>
	<path class="st4" d="M221.6,248.1c-0.4-0.3-1.2-0.3-1.4,0.3c-1.7,4.9-2.6,10.7-2.3,15.8c0.4,5.9,2.9,13.3,7.6,17.1
		c0.4,0.3,1.2,0.3,1.4-0.2c3.5-7.4,3.6-15.7,1.2-23.5C226.8,253.8,224.9,250.4,221.6,248.1z"/>
	<path class="st4" d="M187.3,251.6c2.2-2.7,3.9-5.8,4-9.3c0-0.5-0.4-1-0.9-0.9c-4.3,1.1-9,3.1-12.6,5.6c-4.1,2.9-8.5,7.9-9.4,13.1
		c-0.1,0.5,0.2,1,0.8,1C176.2,260.7,182.6,257.1,187.3,251.6z"/>
	<path class="st4" d="M156.1,192.5c-0.6,0.1-1.1,0.7-0.8,1.3c3.6,8.3,11.1,14.3,20,17c4.4,1.2,8.8,1.6,12.9-0.3
		c0.5-0.2,0.9-1,0.5-1.5c-3.6-4.4-8.3-8.6-12.9-11.6C170.5,194.1,162.7,191.4,156.1,192.5z"/>
	<path class="st4" d="M182.7,196.4c0.4,0.1,0.9-0.2,0.8-0.6c-0.2-3.7-1.1-7.8-2.5-11.1c-1.6-3.8-4.8-8.2-8.7-10.1
		c-0.4-0.2-0.9,0-0.9,0.4c-1.1,5.8,0.7,11.8,4.3,16.6C177.6,194,179.8,195.8,182.7,196.4z"/>
	<path class="st4" d="M173.2,218.1c-2.6-1.5-5.9-2.7-8.9-3.1c-3.4-0.4-8,0.3-10.7,2.7c-0.2,0.2-0.3,0.6,0,0.8c4,2.7,8.6,3.5,13.3,3
		c2.3-0.3,4.5-1,6.2-2.7C173.4,218.8,173.5,218.3,173.2,218.1z"/>
	<path class="st4" d="M169.4,238.8c0.1-0.3-0.1-0.7-0.5-0.7c-3,0.1-6.4,1-9.1,2.5c-3.1,1.7-6.3,5.1-6.9,8.6
		c-0.1,0.3,0.2,0.7,0.5,0.6c4.7-0.4,8.8-2.4,12.3-5.5C167.5,242.9,168.9,241.1,169.4,238.8z"/>
	<path class="st8" d="M197.9,259.3c-0.2-0.4-0.7-0.7-1.1-0.4c-3.2,2.7-6.2,6.8-7.7,10.8c-1.8,4.7-1.8,11.5,1.1,15.5
		c0.3,0.4,0.8,0.5,1.2,0.1c4.3-5,6.5-10.7,7.5-17C199.2,265.3,199.2,262.3,197.9,259.3z"/>
	<path class="st9" d="M243,281.9c0.4,0.2,0.9,0,1-0.4c1.2-6.2,0.3-12.1-2.2-17.7c-1.3-2.7-2.9-5.2-5.6-6.8c-0.3-0.2-0.9-0.2-1.1,0.3
		c-1.1,3.8-1.4,8.6-0.6,12.6C235.5,274.4,238.7,279.9,243,281.9z"/>
	<path class="st8" d="M261.6,267.9c0.3,0,0.7-0.2,0.6-0.6c-0.6-4.9-2.9-9.1-6.1-12.6c-1.6-1.7-3.5-3.1-5.9-3.7
		c-0.3-0.1-0.7,0.1-0.7,0.5c0.1,3.1,1.1,6.7,2.7,9.5C254.2,264.2,258,267.5,261.6,267.9z"/>
	<path class="st9" d="M261.2,222.5c-0.4,0.1-0.7,0.5-0.5,0.9c1.6,3.3,4.9,6.6,8.4,8.3c2,1,4.6,1.7,7.1,1.8c2.5,0.1,5-0.5,6.8-1.7
		c0.3-0.2,0.4-0.7,0.1-1c-4.3-3.8-8.8-6.1-13.9-7.7C266.5,222.4,264,221.9,261.2,222.5z"/>
	<path class="st4" d="M280.1,213.1c3.9,0,8.9-1.8,11.2-5c0.2-0.3,0.2-0.7-0.2-0.9c-4.9-1.9-9.8-2-14.8-0.9c-2.4,0.6-4.7,1.6-6.4,3.5
		c-0.2,0.3-0.3,0.7,0.1,0.9C272.9,212.2,276.7,213.2,280.1,213.1z"/>
	<path class="st4" d="M301.9,223.7c0.3-0.2,0.4-0.7,0-1c-4.3-3.3-9.3-4.7-14.6-4.9c-2.6,0-5.1,0.4-7.4,1.8c-0.3,0.2-0.5,0.7-0.2,0.9
		c2.6,2.3,6.1,4.2,9.5,5C293.3,226.7,298.8,226.3,301.9,223.7z"/>
	<path class="st4" d="M303.9,187.2c0.2-0.3,0.1-0.6-0.2-0.7c-4.2-1.3-8.5-0.8-12.4,1c-1.9,0.9-3.6,2.1-4.7,4
		c-0.1,0.2-0.1,0.6,0.2,0.7c2.7,0.7,5.8,0.8,8.5,0.3C298.5,191.9,302.3,190,303.9,187.2z"/>
	<path class="st4" d="M182.6,168.5c0.4,0.1,1-0.2,0.9-0.7c-0.2-4.2-1.5-8.9-3.4-12.6c-2.2-4.3-6.7-9-11.5-10.1
		c-0.4-0.1-1,0.2-0.9,0.7c0,6.6,2.7,12.7,7,17.7C176.9,165.9,179.3,167.9,182.6,168.5z"/>
	<path class="st4" d="M151.6,155.5c-0.3,0-0.6,0.2-0.5,0.5c0.6,4.2,2.9,7.7,6,10.4c1.6,1.3,3.3,2.3,5.4,2.4c0.3,0,0.6-0.2,0.5-0.5
		c-0.5-2.6-1.8-5.4-3.3-7.6C158,158.3,154.7,155.8,151.6,155.5z"/>
	<path class="st4" d="M141.3,173.7c-0.4,0.1-0.7,0.5-0.5,0.9c2.6,5.2,7.3,8.9,12.9,10.8c2.8,0.9,5.6,1.2,8.3,0.2
		c0.3-0.1,0.6-0.6,0.4-0.9c-2.1-3-5.1-5.9-8.1-7.9C150.7,174.6,145.5,172.8,141.3,173.7z"/>
	<path class="st8" d="M156.5,209.9c0.3-0.2,0.5-0.7,0.2-1c-2.9-2.5-6.7-4.6-10.3-5.7c-4.2-1.2-10-1.3-13.8,1.1
		c-0.3,0.2-0.5,0.7-0.2,1c4.3,4.1,9.9,6.2,15.9,6.5C151.2,211.9,154,211.6,156.5,209.9z"/>
	<path class="st4" d="M127.7,237.8c-0.2,0.4,0,1,0.4,1.1c6.5,1.5,12.8,0.6,18.8-2c2.9-1.3,5.5-3,7.3-5.9c0.2-0.4,0.2-1-0.3-1.1
		c-4-1.2-9-1.5-13.2-0.7C135.8,230.1,129.9,233.3,127.7,237.8z"/>
	<path class="st4" d="M146.2,274.5c0,0.3,0.4,0.6,0.7,0.5c4.6-1.8,8-5.1,10.5-9.3c1.2-2.1,2-4.3,1.7-6.7c0-0.3-0.3-0.7-0.7-0.5
		c-2.9,1.1-6,3.1-8.1,5.4C147.8,266.5,145.6,270.8,146.2,274.5z"/>
	<path class="st4" d="M171,295.3c4.5-4.2,7.3-9.3,8.9-15c0.7-2.9,1.1-5.7,0.2-8.7c-0.1-0.4-0.6-0.7-1-0.5c-3.4,2.1-6.6,5.6-8.5,9.3
		c-2.2,4.2-3,10.6-0.7,14.7C170.1,295.4,170.6,295.6,171,295.3z"/>
	<path class="st9" d="M217.8,146.1c0.4,0.3,1,0.4,1.3-0.1c2.2-4.2,4-9.2,4.8-13.7c0.8-5.2,0.3-12.1-2.7-16.8
		c-0.3-0.4-0.9-0.6-1.3-0.2c-5.1,5.6-7.2,13.3-6.4,20.9C213.9,140,215.1,143.5,217.8,146.1z"/>
	<path class="st4" d="M263.1,164.6c4.9-0.8,10.3-2.8,14.4-5.5c4.8-3.1,9.8-8.9,10.6-14.7c0.1-0.5-0.3-1.1-0.9-1
		c-7.8,0.8-14.6,4.6-20,10.3c-2.6,2.9-4.6,6-5,9.9C262.2,164.1,262.5,164.7,263.1,164.6z"/>
	<path class="st4" d="M207.1,269.9c-0.4-0.3-1.1-0.4-1.3,0.1c-2.3,4.2-3.9,9.7-4.1,14.6c-0.3,5.6,1.7,13,6,16.7
		c0.4,0.3,1.1,0.3,1.3-0.2c3.5-6.8,4.2-14.2,2.9-21.6C211.1,276,209.9,272.6,207.1,269.9z"/>
	<path class="st4" d="M236.5,304.6c0.3,0.2,0.8,0.1,0.9-0.3c1.6-5.1,1-10.4-1.1-15.3c-1.1-2.4-2.5-4.5-4.9-5.8
		c-0.3-0.2-0.8-0.1-0.9,0.3c-0.8,3.3-1,7.2-0.4,10.5C230.8,297.9,233.1,302.5,236.5,304.6z"/>
	<path class="st4" d="M262.5,290.5c0.4,0.1,0.8-0.1,0.9-0.6c0.1-5.8-1.8-11.1-5.1-15.8c-1.7-2.2-3.7-4.2-6.4-5.1
		c-0.4-0.1-0.9,0-0.9,0.5c-0.2,3.7,0.5,8,1.9,11.4C254.5,284.9,258.3,289.4,262.5,290.5z"/>
	<path class="st4" d="M300.6,257.5c0.5-0.1,0.8-0.6,0.6-1.1c-3.2-6.2-8.5-10.6-14.9-13.3c-3.2-1.2-6.5-1.9-9.8-1
		c-0.4,0.1-0.8,0.6-0.6,1.1c2.2,3.8,5.6,7.6,9.2,10.2C289.1,256.4,295.5,258.7,300.6,257.5z"/>
	<path class="st4" d="M283.4,276.5c0.4,0,0.7-0.2,0.7-0.6c-0.7-5.2-3.4-9.6-7.3-13c-2-1.6-4.1-2.9-6.7-3.1c-0.3,0-0.7,0.2-0.7,0.6
		c0.6,3.2,2.1,6.8,4,9.4C275.6,272.9,279.5,276,283.4,276.5z"/>
	<path class="st4" d="M182.1,143.8c0.5,0.2,1.3,0,1.3-0.7c0.5-5.3,0-11.5-1.5-16.5c-1.7-5.8-6-12.8-11.7-15.6
		c-0.5-0.3-1.2-0.1-1.4,0.6c-1.9,8.3-0.1,16.8,4.2,24.2C175.3,139.2,178.1,142.3,182.1,143.8z"/>
	<path class="st4" d="M201.5,121.7c0.3,0.2,0.8,0.2,1-0.2c1.4-3.4,2.2-7.5,2.1-11.1c-0.1-4.2-1.8-9.5-5.1-12.3
		c-0.3-0.2-0.8-0.2-1,0.2c-2.5,5.2-2.7,11-1.3,16.5C198,117.4,199.2,119.9,201.5,121.7z"/>
	<path class="st4" d="M232.4,128.6c3.2-2.3,6.2-5.6,8.2-8.9c2.3-3.9,3.7-9.7,2.3-14.1c-0.1-0.4-0.6-0.7-1-0.4
		c-5.2,3.3-8.6,8.4-10.4,14.3c-0.8,2.9-1.1,5.9,0,8.7C231.6,128.6,232,128.9,232.4,128.6z"/>
	<path class="st8" d="M250,124.4c-1.1,2.8-1.6,5.7-0.8,8.6c0.1,0.4,0.5,0.7,0.9,0.5c3.3-1.9,6.7-4.9,8.9-8.1
		c2.6-3.6,4.6-9.2,3.5-13.7c-0.1-0.4-0.5-0.7-0.9-0.5C256.1,114.1,252.3,118.8,250,124.4z"/>
	<path class="st8" d="M282.7,163.1c-0.2,0.4-0.1,1,0.4,1.1c4.1,1,9,1.4,13.2,0.8c4.8-0.6,10.7-3.1,13.7-7.1c0.3-0.4,0.2-1-0.3-1.2
		c-6.3-2.6-13.2-2.3-19.5,0.3C287.1,158.4,284.3,160.2,282.7,163.1z"/>
	<path class="st4" d="M291.6,117.9c-7.1,1.2-13,5.2-17.5,10.7c-2.2,2.8-3.8,5.8-3.9,9.4c0,0.5,0.3,1,0.9,0.9c4.4-1,9.2-3.2,12.8-5.9
		c4.2-3.1,8.3-8.7,8.7-14.1C292.6,118.3,292.2,117.8,291.6,117.9z"/>
	<path class="st8" d="M158,147.1c0.5,0.1,1.2-0.2,1.1-0.9c-0.3-8.1-3.4-15.3-8.3-21.5c-2.5-3-5.4-5.5-9.3-6.6
		c-0.5-0.1-1.2,0.1-1.2,0.7c-0.1,5.1,1.2,11,3.5,15.7C146.4,140,152,145.8,158,147.1z"/>
	<path class="st9" d="M132.5,147.9c-3.1-2.1-6.4-3.7-10.2-3.5c-0.5,0-1,0.5-0.9,1c1.4,4.5,4.1,9.4,7.1,13c3.5,4.2,9.5,8.3,15.1,8.6
		c0.5,0,1-0.4,0.9-1C143.1,158.7,138.6,152.4,132.5,147.9z"/>
	<path class="st4" d="M105.8,176.5c-0.5,0.2-0.8,0.9-0.4,1.4c3.5,3.7,8.1,7.3,12.5,9.6c5.1,2.6,12.5,4.3,18.3,2.6
		c0.5-0.2,0.9-0.8,0.6-1.3c-4.2-7-11.4-11.6-19.4-13.3C113.3,174.7,109.3,174.6,105.8,176.5z"/>
	<path class="st9" d="M104.4,218c-0.4,0.4-0.5,1.2,0,1.5c4.7,2.8,10.7,4.8,16.1,5.4c6.3,0.7,14.6-0.7,19.3-5.1
		c0.4-0.4,0.5-1.2,0-1.5c-7.2-4.8-15.7-6.3-24.2-5.3C111.4,213.7,107.5,214.9,104.4,218z"/>
	<path class="st8" d="M121.3,268.2c4.8-0.6,10-2.2,14.2-4.5c4.8-2.6,10-7.6,11.5-13.1c0.1-0.5-0.2-1.1-0.7-1.1
		c-7.6-0.1-14.8,3-20.4,8.2c-2.7,2.6-4.9,5.6-5.4,9.4C120.4,267.6,120.7,268.3,121.3,268.2z"/>
	<path class="st9" d="M144.8,297.6c5.1-1.6,10.6-4.5,14.7-8.1c4.7-4.1,9.2-11,9.2-17.4c0-0.6-0.5-1.1-1.1-1c-8.3,2-15,7.2-19.9,14
		c-2.3,3.5-4,7.2-3.9,11.4C143.7,297.1,144.2,297.7,144.8,297.6z"/>
	<path class="st4" d="M186,288.5c-0.2-0.5-0.9-0.8-1.4-0.4c-6.3,5.3-9.8,13-10.6,21.2c-0.3,4.1,0.2,8,2.5,11.4
		c0.3,0.4,1,0.7,1.4,0.2c3.4-3.9,6.4-9,8.1-13.7C188,301.7,188.7,294,186,288.5z"/>
	<path class="st4" d="M218.7,296.9c-0.4-0.3-1-0.4-1.3,0.1c-2.2,4.2-3.7,9.5-4,14.2c-0.3,5.4,1.3,12.5,5.3,16.5
		c0.4,0.4,1,0.4,1.3-0.1c3.8-6.5,4.7-13.9,3.4-21.2C222.7,302.8,221.4,299.4,218.7,296.9z"/>
	<path class="st4" d="M258.4,321.3c0.5,0.2,1.1-0.1,1.2-0.6c1-7.4-0.5-14.4-3.6-20.9c-1.6-3.2-3.6-6.1-6.9-7.9
		c-0.4-0.2-1.1-0.2-1.3,0.4c-1.3,4.6-1.4,10.3-0.2,15.1C248.9,312.8,253.1,319.2,258.4,321.3z"/>
	<path class="st4" d="M328.9,206.2c-6.3-4.6-14.1-6.1-21.9-5.1c-3.8,0.6-7.4,1.9-10,4.7c-0.3,0.4-0.4,1.1,0.1,1.4
		c4.3,2.3,9.7,4,14.5,4.5c5.5,0.6,12.8-0.5,17.3-4.2C329.2,207.3,329.3,206.6,328.9,206.2z"/>
	<path class="st4" d="M310.1,175.2c4-0.2,9-1.8,11.6-5c0.2-0.3,0.2-0.8-0.2-0.9c-5-2.3-10.4-2.4-15.7-1c-2.6,0.8-4.9,2-6.5,4.2
		c-0.2,0.3-0.2,0.8,0.2,0.9C302.6,174.7,306.6,175.4,310.1,175.2z"/>
	<path class="st4" d="M321.5,241.7c0.4-0.2,0.6-0.7,0.3-1c-3.9-4.7-9.4-7.5-15.5-8.6c-3-0.4-5.9-0.4-8.7,1.1c-0.4,0.2-0.6,0.7-0.3,1
		c2.6,2.9,6.3,5.5,9.9,7C311.4,242.9,317.3,243.7,321.5,241.7z"/>
	<path class="st4" d="M317.5,130.9c-5.7-0.8-11.3,0.8-16.1,3.9c-2.3,1.6-4.3,3.5-5.3,6.2c-0.1,0.3,0,0.9,0.5,0.9
		c3.6,0.3,7.8-0.2,11.3-1.4c4-1.4,8.5-4.7,10.1-8.7C318.1,131.5,317.9,131,317.5,130.9z"/>
	<path class="st4" d="M297.5,275.9c3.1,3.1,8.3,5.9,12.8,5.5c0.4,0,0.8-0.4,0.6-0.9c-1.9-5.7-5.9-10.2-11.1-13.4
		c-2.6-1.5-5.3-2.5-8.3-2.1c-0.4,0-0.8,0.4-0.6,0.9C292.4,269.5,294.8,273.2,297.5,275.9z"/>
	<path class="st4" d="M273.8,284.4c-0.4-0.1-1.1,0.2-1,0.7c0.2,4.5,1.5,9.5,3.6,13.5c2.4,4.6,7.1,9.7,12.3,10.9c0.5,0.1,1-0.2,1-0.7
		c0-7.1-2.8-13.6-7.4-19C279.9,287.3,277.3,285.2,273.8,284.4z"/>
	<path class="st4" d="M158.5,306c-0.1-0.6-0.8-1.2-1.5-0.9c-5.6,2.9-11.1,8.1-14.4,13.7c-1.9,3.2-3.4,7.4-4,11.5
		c-0.5,4.2-0.1,8.4,1.5,11.7c0.3,0.6,1.1,0.9,1.7,0.4c7.5-6.3,12.3-14,15.4-22.8C158.8,315.3,159.6,310.8,158.5,306z"/>
	<path class="st8" d="M206.5,318.5c-0.6-4.5-1.8-8.7-4.8-12.3c-0.4-0.5-1.2-0.7-1.6-0.1c-3.3,4.9-5.8,11.5-6.5,17.5
		c-0.8,6.9,1,16.2,6.2,21c0.5,0.4,1.3,0.5,1.6-0.1C206,336.5,207.4,327.6,206.5,318.5z"/>
	<path class="st4" d="M135,285c-6.3,0.3-13.4,2.1-19.1,5c-6.5,3.3-13.6,9.9-15.5,17.2c-0.2,0.7,0.2,1.4,1,1.4
		c10,0.1,19.2-3.9,26.8-10.3c3.7-3.3,6.7-7,7.7-11.9C136.1,285.8,135.8,284.9,135,285z"/>
	<path class="st4" d="M105.3,255c3.7-1,7.2-2.6,9.5-5.7c0.3-0.4,0.3-1.1-0.2-1.3c-4.5-1.9-10.1-3.1-14.9-3.1
		c-5.6-0.1-12.8,1.7-16.9,5.9c-0.4,0.4-0.4,1.1,0.1,1.4C89.7,256.1,97.7,256.9,105.3,255z"/>
	<path class="st4" d="M94.1,202.2c6.5,2.4,15.7,3.5,22.3,0.5c0.6-0.3,0.9-1.1,0.5-1.6c-6.1-7.7-15.2-12.1-25-13.2
		c-4.8-0.4-9.6,0-13.7,2.7c-0.5,0.3-0.9,1.2-0.3,1.7C82.5,196.3,88.4,200,94.1,202.2z"/>
	<path class="st8" d="M104.4,162.2c5.2,4,13.4,7,19.8,5.5c0.6-0.1,1-0.8,0.7-1.4c-4.1-7.8-10.6-13.4-18.5-17.1
		c-3.9-1.7-8-2.8-12.3-1.9c-0.6,0.1-1.1,0.7-0.8,1.3C95.8,153.7,100,158.8,104.4,162.2z"/>
	<path class="st4" d="M134.3,136.7c0.4,0,0.8-0.4,0.7-0.8c-1.3-6.1-4.3-11.1-8.3-15.5c-2.1-2.1-4.3-3.9-7.4-4.7
		c-0.4-0.1-0.9,0.1-0.9,0.6c0,4,1.4,8.6,3.6,12.2C124.4,132.5,129.5,136.6,134.3,136.7z"/>
	<path class="st4" d="M161.7,121.1c0.5,0.2,1.1,0.1,1.2-0.5c1.7-7.4,0.5-14.7-2.6-21.4c-1.7-3.3-3.8-6.2-7.1-8
		c-0.4-0.2-1.1-0.1-1.3,0.4c-1.1,4.6-1.2,10.2-0.1,14.9C153,112.1,156.6,118.6,161.7,121.1z"/>
	<path class="st8" d="M187.8,115.4c0.7,0.5,1.7,0.4,2.1-0.4c5-11.2,5.4-23.1,2.7-34.7c-1.5-5.7-3.8-11-8.4-15
		c-0.6-0.5-1.7-0.6-2.1,0.2c-3.4,7-5.4,15.8-5.3,23.7C176.7,98.2,180.5,109.8,187.8,115.4z"/>
	<path class="st4" d="M220.7,103.8c4.3-5.6,6-12.4,5.7-19.4c-0.3-3.4-1.1-6.7-3.4-9.4c-0.3-0.3-0.9-0.5-1.2-0.1
		c-2.5,3.7-4.6,8.4-5.4,12.8c-0.9,5.1-0.2,11.9,3.1,16C219.7,104.1,220.3,104.2,220.7,103.8z"/>
	<path class="st4" d="M249.5,106.9c6.1-7.1,9.1-15.8,9.5-25c0.1-4.6-0.5-9-3.1-12.9c-0.3-0.5-1.1-0.8-1.6-0.3
		c-3.9,4.4-7.3,10.6-8.9,16.3c-1.9,6.7-1.6,16,2.5,21.7C248.2,107.2,249,107.4,249.5,106.9z"/>
	<path class="st9" d="M270.1,118.7c7.9-5.2,13.1-13.1,15.7-22.1c1.2-4.5,1.6-9-0.1-13.4c-0.2-0.6-1-1-1.5-0.6
		c-4.8,3.5-9.5,8.7-12.4,13.9c-3.4,6-5.5,14.9-3.2,21.6C268.7,118.7,269.5,119.1,270.1,118.7z"/>
	<path class="st4" d="M303.6,113.9c-2.7,3.4-4.7,7.2-4.7,11.5c0,0.6,0.5,1.2,1.1,1.1c5.3-1.4,11.1-4,15.4-7.2
		c5-3.7,10.3-10,11.3-16.5c0.1-0.6-0.3-1.2-1-1.2C317,102.5,309.3,107.1,303.6,113.9z"/>
	<path class="st4" d="M317.1,150.9c-0.3,0.3-0.3,1,0.2,1.1c3.9,1.5,8.7,2.4,12.9,2.2c4.8-0.2,11-2.3,14.1-6.2
		c0.3-0.4,0.2-0.9-0.2-1.1c-6.1-2.8-12.7-2.9-19.1-1C321.9,146.8,319.1,148.2,317.1,150.9z"/>
	<path class="st9" d="M324.2,183.9c-4.8,0.8-9.2,2.4-12.5,6c-0.4,0.5-0.5,1.3,0.1,1.7c5.4,2.8,12.1,4.9,18,5.6
		c6.8,0.8,15.9-0.5,21.6-4.9c0.5-0.4,0.7-1.3,0.1-1.7C343.8,184.6,333.9,182.5,324.2,183.9z"/>
	<path class="st8" d="M327.9,220.5c-4.5-0.4-9-0.1-13,2.2c-0.5,0.3-0.9,1.1-0.4,1.6c4.2,4.1,9.9,7.8,15.4,9.9
		c6.3,2.4,15.3,3,21.4-0.3c0.6-0.3,0.8-1.1,0.4-1.6C345.5,225.4,337,221.6,327.9,220.5z"/>
	<path class="st9" d="M322.9,260c-3.7-1.6-7.5-2.6-11.6-1.7c-0.5,0.1-1,0.7-0.7,1.2c2.4,4.6,6.2,9.3,10.3,12.6
		c4.7,3.7,12.2,6.8,18.2,5.6c0.6-0.1,1-0.7,0.7-1.2C336.4,269,330.3,263.5,322.9,260z"/>
	<path class="st4" d="M308.1,294.9c-3.5-3.3-7.4-5.7-12.1-6.2c-0.6-0.1-1.4,0.4-1.3,1.1c1,6,3.5,12.4,6.4,17.4
		c1.7,2.9,4.1,5.9,6.8,8.4c2.7,2.6,5.8,4.8,9.1,6c0.6,0.2,1.4-0.1,1.5-0.8c0.6-4.8-0.3-9.7-2.1-14.1
		C314.4,302.3,311.6,298.3,308.1,294.9z"/>
	<path class="st4" d="M267.6,307c-0.6-0.2-1.4,0.1-1.4,0.8c-0.4,5.8,0.1,12.3,1.6,17.8c1.7,6.3,5.6,13.8,11.4,17.6
		c0.5,0.3,1.3,0.2,1.6-0.5c3-8.8,1.5-18.6-3.2-26.8C275.1,311.9,272,308.5,267.6,307z"/>
	<path class="st9" d="M236.1,317c-0.5-0.3-1.3-0.2-1.5,0.5c-1.3,5.3-1.9,11.5-1.3,16.9c0.7,6.1,3.6,13.8,8.6,17.9
		c0.5,0.4,1.2,0.3,1.5-0.3c3.7-7.9,3.5-17,0.4-25.2C242.2,322.7,239.9,319.1,236.1,317z"/>
	<path class="st9" d="M113.1,274.4c0.2-0.3,0.1-0.8-0.3-0.9c-5.1-1.8-10.6-1.4-15.6,0.6c-2.5,1-4.7,2.4-6.1,4.8
		c-0.2,0.3-0.1,0.8,0.3,0.9c3.3,0.9,7.3,1.3,10.7,0.8C106.1,280,110.9,277.8,113.1,274.4z"/>
	<path class="st8" d="M134.8,308.7c-4.4,1.6-7.8,4.3-10.5,7.9c-1.3,1.8-2.3,3.7-2.5,6c0,0.3,0.2,0.7,0.6,0.6
		c2.9-0.6,6.1-2.1,8.4-4.1c2.7-2.3,5.1-6.4,4.7-9.9C135.4,308.9,135.1,308.6,134.8,308.7z"/>
	<path class="st9" d="M174,328.6c-2.2,2.2-4.1,5.4-5,8.5c-1,3.6-0.8,8.6,1.6,11.5c0.2,0.3,0.6,0.3,0.9,0c3-3.9,4.4-8.3,4.7-13
		c0.1-2.3-0.1-4.6-1.3-6.7C174.7,328.5,174.3,328.3,174,328.6z"/>
	<path class="st4" d="M219,335.4c-0.2-0.2-0.6-0.2-0.8,0.1c-1.3,2.6-2.1,5.8-2.2,8.7c-0.1,3.3,1,7.6,3.5,9.9
		c0.2,0.2,0.6,0.2,0.8-0.1c2.2-4,2.6-8.5,1.7-12.9C221.6,338.9,220.8,336.9,219,335.4z"/>
	<path class="st4" d="M322.9,289.4c-2.2-1.2-4.5-1.9-6.9-1.5c-0.3,0.1-0.6,0.4-0.4,0.7c1.4,2.8,3.3,5.6,5.4,7.7
		c2.4,2.4,6.1,4.9,9.8,5.2c0.3,0,0.7-0.2,0.6-0.6C330.5,296.1,327.2,292,322.9,289.4z"/>
	<path class="st4" d="M333.5,248.5c-2.7-0.6-5.5-0.5-7.8,0.8c-0.3,0.2-0.5,0.6-0.2,0.9c2.4,2.4,5.4,4.7,8.2,6.3
		c3.3,1.8,7.9,3.2,11.9,2.6c0.4-0.1,0.7-0.4,0.5-0.8C343.8,253.3,339,249.7,333.5,248.5z"/>
	<path class="st4" d="M336.8,168.3c-2.4,0.2-4.7,0.7-6.8,2.2c-0.3,0.2-0.4,0.6-0.1,0.9c2.5,2.1,6.2,3.7,9.6,4.1
		c3.9,0.5,9.2-0.8,11.6-3.9c0.2-0.3,0.2-0.7-0.2-0.9C346.3,168.6,341.7,168,336.8,168.3z"/>
	<path class="st8" d="M96.4,224.5c0.4-0.2,0.6-0.6,0.3-1c-3.6-4.7-9.4-7.4-15.5-7.7c-3-0.1-5.9,0.5-8.2,2.3c-0.3,0.2-0.4,0.8-0.1,1
		c3,2.2,6.7,4.1,10.1,5.2C87,225.7,92.3,226.2,96.4,224.5z"/>
	<path class="st4" d="M186.1,341.1c-0.3-0.3-0.8-0.5-1.1-0.1c-2.3,3.3-4.1,7.6-4.8,11.5c-0.8,4.5-0.3,10.7,2.7,14.4
		c0.3,0.3,0.8,0.4,1.1,0.1c3.9-5,5.5-11.1,5.2-17.4C188.8,346.5,188.1,343.5,186.1,341.1z"/>
	<path class="st4" d="M206.2,350.7c-0.2-0.2-0.6-0.2-0.7,0.1c-0.9,2.4-1.4,5.3-1.3,7.8c0.2,2.9,1.4,6.6,3.8,8.4
		c0.2,0.2,0.6,0.1,0.7-0.1c1.6-3.7,1.7-7.7,0.6-11.5C208.7,353.6,207.9,351.9,206.2,350.7z"/>
	<path class="st4" d="M256,333c-0.4-0.2-1-0.2-1.1,0.3c-1.1,4.1-1.5,9-1,13.2c0.6,4.8,3.1,10.8,7.2,13.8c0.4,0.3,1,0.2,1.2-0.3
		c2.5-6.3,2.1-13.2-0.3-19.5C260.7,337.4,259,334.7,256,333z"/>
	<path class="st8" d="M291.5,319.4c-0.4-0.1-1,0.1-1,0.6c0.1,4.2,0.9,8.9,2.4,12.8c1.8,4.4,5.4,9.5,10,11.5c0.4,0.2,1,0,1.1-0.5
		c1.1-6.6-0.8-13.3-4.8-18.8C297.1,322.5,294.7,320.3,291.5,319.4z"/>
	<path class="st4" d="M359,210.1c-4.2-3.5-9.5-5-14.9-5c-2.7,0.1-5.2,0.6-7.4,2.3c-0.3,0.2-0.4,0.7-0.1,1c2.8,2.1,6.4,3.8,9.8,4.5
		c3.9,0.9,9.2,0.5,12.5-1.9C359.3,210.9,359.4,210.4,359,210.1z"/>
	<path class="st8" d="M291.3,112.1c4-2.1,8-5.5,10.7-9c3.2-4.1,5.7-10.5,4.7-15.8c-0.1-0.5-0.6-0.8-1.1-0.6
		c-6.4,3-11.1,8.4-14.1,14.8c-1.3,3.2-2.1,6.5-1.3,10C290.3,112,290.8,112.4,291.3,112.1z"/>
	<path class="st9" d="M204.3,91c0.2,0.2,0.7,0.3,0.8-0.1c1.4-2.6,2.3-5.9,2.5-8.9c0.2-3.4-0.8-7.9-3.3-10.3
		c-0.2-0.2-0.6-0.2-0.8,0.1c-2.4,4-3,8.7-2.2,13.3C201.8,87.3,202.6,89.4,204.3,91z"/>
	<path class="st4" d="M166,96.7c0.3,0.1,0.8,0,0.9-0.4c0.5-3.4,0.3-7.4-0.6-10.7c-1-3.8-3.6-8.4-7.2-10.3c-0.3-0.2-0.8-0.1-0.9,0.3
		c-1.3,5.3-0.4,10.8,2.3,15.6C161.8,93.6,163.5,95.6,166,96.7z"/>
	<path class="st4" d="M138.6,110.3c0.3,0,0.6-0.2,0.6-0.5c-0.6-4.5-2.6-8.3-5.5-11.5c-1.5-1.6-3.2-2.9-5.4-3.4
		c-0.3-0.1-0.7,0.1-0.7,0.4c0.1,2.9,1,6.1,2.5,8.7C131.9,106.8,135.3,109.9,138.6,110.3z"/>
	<path class="st4" d="M102.5,133.1c2.9,3,7.7,5.8,12,5.6c0.4,0,0.7-0.4,0.6-0.8c-1.7-5.5-5.4-9.8-10.1-12.9
		c-2.4-1.4-4.9-2.5-7.8-2.2c-0.4,0-0.8,0.4-0.6,0.8C97.8,126.9,100,130.5,102.5,133.1z"/>
	<path class="st4" d="M86.5,176c3.2,1.5,7.8,2.2,11.1,0.7c0.3-0.1,0.5-0.5,0.2-0.8c-3-3.8-7.2-6.1-11.9-7.1
		c-2.3-0.4-4.6-0.4-6.8,0.6c-0.3,0.1-0.5,0.5-0.2,0.8C80.9,172.6,83.7,174.8,86.5,176z"/>
	<path class="st4" d="M98.2,238.2c0.3-0.2,0.4-0.8,0.1-1c-4.6-3.7-10.7-5-16.7-4c-2.9,0.6-5.6,1.7-7.5,4c-0.2,0.3-0.3,0.8,0.1,1
		c3.4,1.5,7.4,2.6,11,3C89.4,241.5,94.7,240.8,98.2,238.2z"/>
	<path class="st4" d="M160.4,328.5c-3.2,2.2-6.3,5.5-8.3,8.8c-2.3,3.9-3.6,9.8-1.9,14.1c0.2,0.4,0.6,0.6,1,0.4
		c5-3.5,8.2-8.5,10-14.2c0.8-2.8,1.1-5.7,0.1-8.6C161.3,328.6,160.8,328.3,160.4,328.5z"/>
</g>
</svg>
